<svg xmlns="http://www.w3.org/2000/svg" width="1451.25" height="377" viewBox="0 0 1451.25 377">
  <g id="Сгруппировать_270" data-name="Сгруппировать 270" transform="translate(-235 -7401)">
    <line id="Линия_1" data-name="Линия 1" x1="636" transform="translate(260.5 7418.5)" fill="none" stroke="#25b5b5" stroke-width="2"/>
    <line id="Линия_2" data-name="Линия 2" x1="647.5" transform="translate(915.5 7418.5)" fill="none" stroke="#25b5b5" stroke-width="2"/>
    <text id="Company_was_established_in_2018_in_Scotland" data-name="Company was established
in 2018 in Scotland" transform="translate(235 7497)" font-size="26" font-family="Helvetica-Bold, Helvetica" font-weight="700"><tspan x="0" y="0">Company was established</tspan><tspan x="0" y="31">in 2018 in Scotland</tspan></text>
    <text id="The_representative_office_was_opened_in_Tashkent_in_2019" data-name="The representative office was
opened in Tashkent in 2019" transform="translate(896 7497)" font-size="26" font-family="Helvetica-Bold, Helvetica" font-weight="700"><tspan x="0" y="0">The representative office was</tspan><tspan x="0" y="31">opened in Tashkent in 2018</tspan></text>
    <path id="Контур_18" data-name="Контур 18" d="M729.894-607.215a122.25,122.25,0,0,1,122.25,122.25,122.25,122.25,0,0,1-122.25,122.25" transform="translate(833.106 8025.715)" fill="none" stroke="#25b5b5" stroke-miterlimit="10" stroke-width="2"/>
    <line id="Линия_3" data-name="Линия 3" x1="434" transform="translate(1129.5 7663)" fill="none" stroke="#24a8a7" stroke-width="2"/>
    <line id="Линия_4" data-name="Линия 4" x1="645" transform="translate(468 7663)" fill="none" stroke="#24a8a7" stroke-width="2"/>
    <text id="The_sales_office_was_opened_in_Moscow_in_2018" data-name="The sales office was opened
in Moscow in 2018" transform="translate(1103 7741)" font-size="26" font-family="Helvetica-Bold, Helvetica" font-weight="700"><tspan x="0" y="0">The sales office was opened</tspan><tspan x="0" y="31">in Moscow in 2018</tspan></text>
    <text id="The_penetration_to_South_East_Asian_market_in_2021" data-name="The penetration to South East
Asian market in 2021" transform="translate(442 7741)" font-size="26" font-family="Helvetica-Bold, Helvetica" font-weight="700"><tspan x="0" y="0">The penetration to South East</tspan><tspan x="0" y="31">Asian market in 2021</tspan></text>
    <g id="Эллипс_56" data-name="Эллипс 56" transform="translate(235 7401)" fill="#25b5b5" stroke="#25b5b5" stroke-width="6">
      <circle cx="18" cy="18" r="18" stroke="none"/>
      <circle cx="18" cy="18" r="15" fill="none"/>
    </g>
    <g id="Эллипс_57" data-name="Эллипс 57" transform="translate(897 7401)" fill="#25b5b5" stroke="#25b5b5" stroke-width="6">
      <circle cx="18" cy="18" r="18" stroke="none"/>
      <circle cx="18" cy="18" r="15" fill="none"/>
    </g>
    <g id="Эллипс_58" data-name="Эллипс 58" transform="translate(1103 7643)" fill="#25b5b5" stroke="#25b5b5" stroke-width="6">
      <circle cx="18" cy="18" r="18" stroke="none"/>
      <circle cx="18" cy="18" r="15" fill="none"/>
    </g>
    <g id="Эллипс_59" data-name="Эллипс 59" transform="translate(442 7643)" fill="#25b5b5" stroke="#25b5b5" stroke-width="6">
      <circle cx="18" cy="18" r="18" stroke="none"/>
      <circle cx="18" cy="18" r="15" fill="none"/>
    </g>
  </g>
</svg>
