<svg xmlns="http://www.w3.org/2000/svg" width="1002.219" height="142.94" viewBox="0 0 1002.219 142.94">
  <g id="Сгруппировать_323" data-name="Сгруппировать 323" transform="translate(-140 -1421.162)">
    <g id="Сгруппировать_263" data-name="Сгруппировать 263" transform="translate(0 -163)">
      <g id="Сгруппировать_262" data-name="Сгруппировать 262" transform="translate(0 -20)">
        <text id="Activation" transform="translate(140 1625)" fill="#161615" font-size="25" font-family="Helvetica-Bold, Helvetica" font-weight="700"><tspan x="0" y="0">Activation</tspan></text>
        <text id="Cell_membrane" data-name="Cell
membrane" transform="translate(773.824 1618.162)" fill="#161615" font-size="16" font-family="PTSans-Regular, PT Sans"><tspan x="0" y="0">Cell</tspan><tspan x="0" y="19">membrane</tspan></text>
        <g id="Сгруппировать_63" data-name="Сгруппировать 63" transform="translate(694.91 1604.72)">
          <g id="Сгруппировать_56" data-name="Сгруппировать 56">
            <rect id="Прямоугольник_11" data-name="Прямоугольник 11" width="36.477" height="2.131" transform="translate(3.188 1.97)" fill="#c6c6c6"/>
            <circle id="Эллипс_1" data-name="Эллипс 1" cx="3.036" cy="3.036" r="3.036" fill="#c6c6c6"/>
            <circle id="Эллипс_2" data-name="Эллипс 2" cx="3.036" cy="3.036" r="3.036" transform="translate(36.628)" fill="#c6c6c6"/>
          </g>
          <g id="Сгруппировать_57" data-name="Сгруппировать 57" transform="translate(0 7.845)">
            <rect id="Прямоугольник_12" data-name="Прямоугольник 12" width="36.477" height="2.131" transform="translate(3.188 1.97)" fill="#c6c6c6"/>
            <circle id="Эллипс_3" data-name="Эллипс 3" cx="3.036" cy="3.036" r="3.036" fill="#c6c6c6"/>
            <circle id="Эллипс_4" data-name="Эллипс 4" cx="3.036" cy="3.036" r="3.036" transform="translate(36.628)" fill="#c6c6c6"/>
          </g>
          <g id="Сгруппировать_58" data-name="Сгруппировать 58" transform="translate(0 15.691)">
            <rect id="Прямоугольник_13" data-name="Прямоугольник 13" width="36.477" height="2.131" transform="translate(3.188 1.97)" fill="#c6c6c6"/>
            <circle id="Эллипс_5" data-name="Эллипс 5" cx="3.036" cy="3.036" r="3.036" fill="#c6c6c6"/>
            <circle id="Эллипс_6" data-name="Эллипс 6" cx="3.036" cy="3.036" r="3.036" transform="translate(36.628)" fill="#c6c6c6"/>
          </g>
          <g id="Сгруппировать_59" data-name="Сгруппировать 59" transform="translate(0 23.536)">
            <rect id="Прямоугольник_14" data-name="Прямоугольник 14" width="36.477" height="2.131" transform="translate(3.188 1.97)" fill="#c6c6c6"/>
            <circle id="Эллипс_7" data-name="Эллипс 7" cx="3.036" cy="3.036" r="3.036" fill="#c6c6c6"/>
            <circle id="Эллипс_8" data-name="Эллипс 8" cx="3.036" cy="3.036" r="3.036" transform="translate(36.628)" fill="#c6c6c6"/>
          </g>
          <g id="Сгруппировать_60" data-name="Сгруппировать 60" transform="translate(0 31.382)">
            <rect id="Прямоугольник_15" data-name="Прямоугольник 15" width="36.477" height="2.131" transform="translate(3.188 1.97)" fill="#c6c6c6"/>
            <circle id="Эллипс_9" data-name="Эллипс 9" cx="3.036" cy="3.036" r="3.036" fill="#c6c6c6"/>
            <circle id="Эллипс_10" data-name="Эллипс 10" cx="3.036" cy="3.036" r="3.036" transform="translate(36.628)" fill="#c6c6c6"/>
          </g>
          <g id="Сгруппировать_61" data-name="Сгруппировать 61" transform="translate(0 39.227)">
            <rect id="Прямоугольник_16" data-name="Прямоугольник 16" width="36.477" height="2.131" transform="translate(3.188 1.97)" fill="#c6c6c6"/>
            <circle id="Эллипс_11" data-name="Эллипс 11" cx="3.036" cy="3.036" r="3.036" fill="#c6c6c6"/>
            <circle id="Эллипс_12" data-name="Эллипс 12" cx="3.036" cy="3.036" r="3.036" transform="translate(36.628)" fill="#c6c6c6"/>
          </g>
          <g id="Сгруппировать_62" data-name="Сгруппировать 62" transform="translate(0 47.072)">
            <rect id="Прямоугольник_17" data-name="Прямоугольник 17" width="36.477" height="2.131" transform="translate(3.188 1.97)" fill="#c6c6c6"/>
            <circle id="Эллипс_13" data-name="Эллипс 13" cx="3.036" cy="3.036" r="3.036" fill="#c6c6c6"/>
            <circle id="Эллипс_14" data-name="Эллипс 14" cx="3.036" cy="3.036" r="3.036" transform="translate(36.628)" fill="#c6c6c6"/>
          </g>
        </g>
        <text id="Activin_Receptor_Type_10_ALK_4_5" data-name="Activin Receptor
Type 10

ALK 4/5" transform="translate(694.909 1683.948)" fill="#161615" font-size="12" font-family="Helvetica-Bold, Helvetica" font-weight="700"><tspan x="0" y="0">Activin Receptor</tspan><tspan x="0" y="15">Type 10</tspan><tspan x="0" y="30"></tspan><tspan x="0" y="45">ALK 4/5</tspan></text>
        <g id="Сгруппировать_66" data-name="Сгруппировать 66" transform="translate(514.601 1602.162)">
          <text id="Activin-Receptor_IIB_ALK4_5-_Heterodimer" data-name="Activin-Receptor
IIB/ALK4/5-
Heterodimer" transform="translate(0 16)" fill="#161615" font-size="16" font-family="PTSans-Regular, PT Sans"><tspan x="0" y="0">Activin-Receptor</tspan><tspan x="0" y="19">IIB/ALK4/5-</tspan><tspan x="0" y="38">Heterodimer</tspan></text>
        </g>
        <text id="Myostatin" transform="translate(424.673 1683.948)" fill="#161615" font-size="12" font-family="Helvetica-Bold, Helvetica" font-weight="700"><tspan x="0" y="0">Myostatin</tspan></text>
        <circle id="Эллипс_15" data-name="Эллипс 15" cx="26.522" cy="26.522" r="26.522" transform="translate(427.151 1607.09)" fill="#24a8a7"/>
        <g id="Сгруппировать_137" data-name="Сгруппировать 137" transform="translate(300.384 1611.555)">
          <rect id="Прямоугольник_18" data-name="Прямоугольник 18" width="86.613" height="2.131" transform="translate(0 6.017)" fill="#24a8a7"/>
          <g id="Сгруппировать_70" data-name="Сгруппировать 70" transform="translate(80.171)">
            <path id="Контур_21" data-name="Контур 21" d="M759.966-3208.562l-1.507-1.507,5.575-5.575-5.575-5.575,1.507-1.507,7.082,7.083Z" transform="translate(-758.459 3222.727)" fill="#24a8a7"/>
          </g>
        </g>
        <g id="Сгруппировать_96" data-name="Сгруппировать 96" transform="translate(893.485 1617.57)">
          <rect id="Прямоугольник_33" data-name="Прямоугольник 33" width="86.613" height="2.131" transform="translate(0 0)" fill="#24a8a7"/>
          <path id="Контур_26" data-name="Контур 26" d="M1626.22-3190.127h-2.131a22.025,22.025,0,0,0-22-22v-2.132A24.159,24.159,0,0,1,1626.22-3190.127Z" transform="translate(-1515.669 3214.259)" fill="#24a8a7"/>
          <rect id="Прямоугольник_34" data-name="Прямоугольник 34" width="2.131" height="15.765" transform="translate(108.42 23.935)" fill="#24a8a7"/>
          <rect id="Прямоугольник_35" data-name="Прямоугольник 35" width="2.131" height="44.594" transform="translate(108.42 23.939)" fill="#24a8a7"/>
          <rect id="Прямоугольник_36" data-name="Прямоугольник 36" width="15.766" height="2.131" transform="translate(70.851 0)" fill="#24a8a7"/>
          <g id="Сгруппировать_95" data-name="Сгруппировать 95" transform="translate(102.403 62.547)">
            <path id="Контур_27" data-name="Контур 27" d="M1631.669-3117.629l-7.082-7.082,1.507-1.507,5.575,5.575,5.575-5.575,1.507,1.507Z" transform="translate(-1624.587 3126.219)" fill="#24a8a7"/>
          </g>
        </g>
      </g>
    </g>
    <text id="_muscle_growth_muscle_differentitaion_" data-name="• muscle growth 
• muscle differentitaion " transform="translate(972.219 1543.102)" fill="#24a8a7" font-size="15" font-family="Helvetica-Bold, Helvetica" font-weight="700"><tspan x="0" y="0">• </tspan><tspan y="0" fill="#161615">muscle growth </tspan><tspan x="0" y="18">•</tspan><tspan y="18" xml:space="preserve" fill="#161615"> muscle differentitaion </tspan></text>
  </g>
</svg>
