<svg xmlns="http://www.w3.org/2000/svg" width="1002.517" height="243.744" viewBox="0 0 1002.517 243.744">
  <g id="Сгруппировать_324" data-name="Сгруппировать 324" transform="translate(-140.028 -1597.992)">
    <g id="Сгруппировать_264" data-name="Сгруппировать 264" transform="translate(0 -188.648)">
      <path id="Контур_22" data-name="Контур 22" d="M853.7-2750.486l-18.845-18.844,3.516-3.517,15.329,15.328,15.328-15.328,3.516,3.517Z" transform="translate(-400.024 4684.636)" fill="#24a8a7"/>
      <rect id="Прямоугольник_28" data-name="Прямоугольник 28" width="17.191" height="4.973" transform="matrix(0.707, -0.707, 0.707, 0.707, 451.915, 1928.875)" fill="#c6c6c6"/>
      <g id="Сгруппировать_261" data-name="Сгруппировать 261">
        <text id="Blockade" transform="translate(140.028 1923.58)" fill="#161615" font-size="24" font-family="Helvetica-Bold, Helvetica" font-weight="700"><tspan x="0" y="0">Blockade</tspan></text>
        <text id="Cell_membrane" data-name="Cell
membrane" transform="translate(773.824 1917.55)" fill="#161615" font-size="16" font-family="PTSans-Regular, PT Sans"><tspan x="0" y="0">Cell</tspan><tspan x="0" y="19">membrane</tspan></text>
        <g id="Сгруппировать_78" data-name="Сгруппировать 78" transform="translate(694.91 1904.108)">
          <g id="Сгруппировать_71" data-name="Сгруппировать 71">
            <rect id="Прямоугольник_19" data-name="Прямоугольник 19" width="36.477" height="2.131" transform="translate(3.188 1.97)" fill="#c6c6c6"/>
            <circle id="Эллипс_16" data-name="Эллипс 16" cx="3.036" cy="3.036" r="3.036" fill="#c6c6c6"/>
            <circle id="Эллипс_17" data-name="Эллипс 17" cx="3.036" cy="3.036" r="3.036" transform="translate(36.628)" fill="#c6c6c6"/>
          </g>
          <g id="Сгруппировать_72" data-name="Сгруппировать 72" transform="translate(0 7.845)">
            <rect id="Прямоугольник_20" data-name="Прямоугольник 20" width="36.477" height="2.131" transform="translate(3.188 1.97)" fill="#c6c6c6"/>
            <circle id="Эллипс_18" data-name="Эллипс 18" cx="3.036" cy="3.036" r="3.036" fill="#c6c6c6"/>
            <circle id="Эллипс_19" data-name="Эллипс 19" cx="3.036" cy="3.036" r="3.036" transform="translate(36.628)" fill="#c6c6c6"/>
          </g>
          <g id="Сгруппировать_73" data-name="Сгруппировать 73" transform="translate(0 15.691)">
            <rect id="Прямоугольник_21" data-name="Прямоугольник 21" width="36.477" height="2.131" transform="translate(3.188 1.97)" fill="#c6c6c6"/>
            <circle id="Эллипс_20" data-name="Эллипс 20" cx="3.036" cy="3.036" r="3.036" fill="#c6c6c6"/>
            <circle id="Эллипс_21" data-name="Эллипс 21" cx="3.036" cy="3.036" r="3.036" transform="translate(36.628)" fill="#c6c6c6"/>
          </g>
          <g id="Сгруппировать_74" data-name="Сгруппировать 74" transform="translate(0 23.536)">
            <rect id="Прямоугольник_22" data-name="Прямоугольник 22" width="36.477" height="2.131" transform="translate(3.188 1.97)" fill="#c6c6c6"/>
            <circle id="Эллипс_22" data-name="Эллипс 22" cx="3.036" cy="3.036" r="3.036" fill="#c6c6c6"/>
            <circle id="Эллипс_23" data-name="Эллипс 23" cx="3.036" cy="3.036" r="3.036" transform="translate(36.628)" fill="#c6c6c6"/>
          </g>
          <g id="Сгруппировать_75" data-name="Сгруппировать 75" transform="translate(0 31.382)">
            <rect id="Прямоугольник_23" data-name="Прямоугольник 23" width="36.477" height="2.131" transform="translate(3.188 1.97)" fill="#c6c6c6"/>
            <circle id="Эллипс_24" data-name="Эллипс 24" cx="3.036" cy="3.036" r="3.036" fill="#c6c6c6"/>
            <circle id="Эллипс_25" data-name="Эллипс 25" cx="3.036" cy="3.036" r="3.036" transform="translate(36.628)" fill="#c6c6c6"/>
          </g>
          <g id="Сгруппировать_76" data-name="Сгруппировать 76" transform="translate(0 39.227)">
            <rect id="Прямоугольник_24" data-name="Прямоугольник 24" width="36.477" height="2.131" transform="translate(3.188 1.97)" fill="#c6c6c6"/>
            <circle id="Эллипс_26" data-name="Эллипс 26" cx="3.036" cy="3.036" r="3.036" fill="#c6c6c6"/>
            <circle id="Эллипс_27" data-name="Эллипс 27" cx="3.036" cy="3.036" r="3.036" transform="translate(36.628)" fill="#c6c6c6"/>
          </g>
          <g id="Сгруппировать_77" data-name="Сгруппировать 77" transform="translate(0 47.072)">
            <rect id="Прямоугольник_25" data-name="Прямоугольник 25" width="36.477" height="2.131" transform="translate(3.188 1.97)" fill="#c6c6c6"/>
            <circle id="Эллипс_28" data-name="Эллипс 28" cx="3.036" cy="3.036" r="3.036" fill="#c6c6c6"/>
            <circle id="Эллипс_29" data-name="Эллипс 29" cx="3.036" cy="3.036" r="3.036" transform="translate(36.628)" fill="#c6c6c6"/>
          </g>
        </g>
        <text id="Activin_Receptor_Type_10_ALK_4_5" data-name="Activin Receptor
Type 10

ALK 4/5" transform="translate(694.909 1982.385)" fill="#161615" font-size="12" font-family="Helvetica-Bold, Helvetica" font-weight="700"><tspan x="0" y="0">Activin Receptor</tspan><tspan x="0" y="15">Type 10</tspan><tspan x="0" y="30"></tspan><tspan x="0" y="45">ALK 4/5</tspan></text>
        <g id="Сгруппировать_81" data-name="Сгруппировать 81" transform="translate(514.601 1901.55)">
          <text id="Activin-Receptor_IIB_ALK4_5-_Heterodimer" data-name="Activin-Receptor
IIB/ALK4/5-
Heterodimer" transform="translate(0 16)" fill="#161615" font-size="16" font-family="PTSans-Regular, PT Sans"><tspan x="0" y="0">Activin-Receptor</tspan><tspan x="0" y="19">IIB/ALK4/5-</tspan><tspan x="0" y="38">Heterodimer</tspan></text>
        </g>
        <g id="Сгруппировать_82" data-name="Сгруппировать 82" transform="translate(428.932 1970.384)">
          <text id="Antibody" transform="translate(0 12)" fill="#161615" font-size="12" font-family="Helvetica-Bold, Helvetica" font-weight="700"><tspan x="0" y="0">Antibody</tspan></text>
        </g>
        <rect id="Прямоугольник_26" data-name="Прямоугольник 26" width="4.973" height="23.239" transform="translate(451.187 1930.634)" fill="#c6c6c6"/>
        <rect id="Прямоугольник_27" data-name="Прямоугольник 27" width="4.973" height="17.192" transform="matrix(0.707, -0.707, 0.707, 0.707, 439.759, 1920.236)" fill="#c6c6c6"/>
        <g id="Сгруппировать_138" data-name="Сгруппировать 138" transform="translate(300.384 1907.562)">
          <rect id="Прямоугольник_29" data-name="Прямоугольник 29" width="86.613" height="2.131" transform="translate(0 6.361)" fill="#24a8a7"/>
          <path id="Контур_23" data-name="Контур 23" d="M759.519-2768.343" transform="translate(-678.594 2775.771)" fill="#24a8a7" stroke="#161615" stroke-miterlimit="10" stroke-width="3"/>
          <rect id="Прямоугольник_30" data-name="Прямоугольник 30" width="2.131" height="14.854" transform="translate(84.92 0)" fill="#24a8a7"/>
        </g>
        <g id="Сгруппировать_98" data-name="Сгруппировать 98" transform="translate(893.485 1846.641)">
          <rect id="Прямоугольник_37" data-name="Прямоугольник 37" width="86.613" height="2.131" transform="translate(0 69.004)" fill="#24a8a7"/>
          <path id="Контур_28" data-name="Контур 28" d="M1602.09-2774.255v-2.131a22.025,22.025,0,0,0,22-22h2.131A24.158,24.158,0,0,1,1602.09-2774.255Z" transform="translate(-1515.669 2845.391)" fill="#24a8a7"/>
          <rect id="Прямоугольник_38" data-name="Прямоугольник 38" width="2.131" height="15.766" transform="translate(108.42 31.435)" fill="#24a8a7"/>
          <rect id="Прямоугольник_39" data-name="Прямоугольник 39" width="2.131" height="44.594" transform="translate(108.42 2.603)" fill="#24a8a7"/>
          <rect id="Прямоугольник_40" data-name="Прямоугольник 40" width="15.766" height="2.131" transform="translate(70.851 69.004)" fill="#24a8a7"/>
          <g id="Сгруппировать_97" data-name="Сгруппировать 97" transform="translate(102.403)">
            <path id="Контур_29" data-name="Контур 29" d="M1637.244-2855.96l-5.575-5.575-5.575,5.575-1.507-1.507,7.082-7.082,7.082,7.082Z" transform="translate(-1624.587 2864.549)" fill="#24a8a7"/>
          </g>
        </g>
      </g>
    </g>
    <text id="_muscle_growth_muscle_differentitaion_" data-name="• muscle growth 
• muscle differentitaion " transform="translate(972.546 1609.992)" fill="#24a8a7" font-size="15" font-family="Helvetica-Bold, Helvetica" font-weight="700"><tspan x="0" y="0">• </tspan><tspan y="0" fill="#161615">muscle growth </tspan><tspan x="0" y="18">• </tspan><tspan y="18" fill="#161615">muscle differentitaion </tspan></text>
  </g>
</svg>
