<svg id="Сгруппировать_215" data-name="Сгруппировать 215" xmlns="http://www.w3.org/2000/svg" width="290.057" height="361.399" viewBox="0 0 290.057 361.399">
  <g id="Сгруппировать_186" data-name="Сгруппировать 186" transform="translate(119.949 169.621)">
    <path id="Контур_93" data-name="Контур 93" d="M3037.722-1268.409a25.107,25.107,0,0,1-25.078-25.078h9.1a16,16,0,0,0,15.98,15.98,16,16,0,0,0,15.981-15.98h9.1A25.107,25.107,0,0,1,3037.722-1268.409Z" transform="translate(-3012.644 1337.336)" fill="#25b5b5"/>
    <rect id="Прямоугольник_63" data-name="Прямоугольник 63" width="9.098" height="44.749" transform="translate(0)" fill="#25b5b5"/>
    <rect id="Прямоугольник_64" data-name="Прямоугольник 64" width="9.098" height="44.749" transform="translate(41.059)" fill="#25b5b5"/>
    <path id="Контур_94" data-name="Контур 94" d="M3062.8-1247.332h-9.1a16,16,0,0,0-15.981-15.98,16,16,0,0,0-15.98,15.98h-9.1a25.107,25.107,0,0,1,25.078-25.078A25.107,25.107,0,0,1,3062.8-1247.332Z" transform="translate(-3012.644 1332.239)" fill="#25b5b5"/>
    <rect id="Прямоугольник_65" data-name="Прямоугольник 65" width="9.098" height="44.749" transform="translate(41.059 84.008)" fill="#25b5b5"/>
    <rect id="Прямоугольник_66" data-name="Прямоугольник 66" width="9.098" height="44.749" transform="translate(0 84.008)" fill="#25b5b5"/>
  </g>
  <g id="Сгруппировать_177" data-name="Сгруппировать 177" transform="translate(88.31 136.278)">
    <g id="Сгруппировать_175" data-name="Сгруппировать 175" transform="translate(5.343)">
      <path id="Контур_95" data-name="Контур 95" d="M3012.922-1374.091h-16.971l-17.99-17.99,3.216-3.216,16.658,16.658h15.087Z" transform="translate(-2977.961 1395.298)" fill="#006799"/>
      <rect id="Прямоугольник_67" data-name="Прямоугольник 67" width="16.029" height="4.549" transform="translate(18.932 8.643)" fill="#006799"/>
    </g>
    <g id="Сгруппировать_176" data-name="Сгруппировать 176" transform="translate(0 5.343)">
      <path id="Контур_96" data-name="Контур 96" d="M2992.121-1353.29h-4.549v-15.087l-16.658-16.659,3.217-3.216,17.99,17.991Z" transform="translate(-2970.914 1388.251)" fill="#006799"/>
      <rect id="Прямоугольник_68" data-name="Прямоугольник 68" width="4.549" height="16.029" transform="translate(8.644 18.933)" fill="#006799"/>
    </g>
  </g>
  <g id="Сгруппировать_180" data-name="Сгруппировать 180" transform="translate(161.442 136.278)">
    <g id="Сгруппировать_178" data-name="Сгруппировать 178">
      <path id="Контур_97" data-name="Контур 97" d="M3084.341-1374.091H3067.37v-4.549h15.088l16.658-16.658,3.216,3.216Z" transform="translate(-3067.37 1395.298)" fill="#006799"/>
      <rect id="Прямоугольник_69" data-name="Прямоугольник 69" width="16.029" height="4.549" transform="translate(0 8.643)" fill="#006799"/>
    </g>
    <g id="Сгруппировать_179" data-name="Сгруппировать 179" transform="translate(19.098 5.342)">
      <path id="Контур_98" data-name="Контур 98" d="M3097.107-1353.29h-4.549v-16.971l17.991-17.991,3.216,3.217-16.659,16.658Z" transform="translate(-3092.558 1388.252)" fill="#006799"/>
      <rect id="Прямоугольник_70" data-name="Прямоугольник 70" width="4.549" height="16.029" transform="translate(8.015 18.933)" fill="#006799"/>
    </g>
  </g>
  <g id="Сгруппировать_182" data-name="Сгруппировать 182" transform="translate(187.344)">
    <path id="Контур_100" data-name="Контур 100" d="M3168.4-1551.444c-3.366-3.366-9.432-2.851-14.087.994l13.093,13.093C3171.248-1542.013,3171.763-1548.079,3168.4-1551.444Z" transform="translate(-3148.932 1553.681)" fill="#eb656d"/>
    <path id="Контур_101" data-name="Контур 101" d="M3145.919-1528.966c3.365,3.366,9.432,2.851,14.088-.994l-13.094-13.093C3143.068-1538.4,3142.552-1532.333,3145.919-1528.966Z" transform="translate(-3143.682 1548.432)" fill="#eb656d"/>
  </g>
  <g id="Сгруппировать_183" data-name="Сгруппировать 183" transform="translate(165.642 40.409)">
    <path id="Контур_102" data-name="Контур 102" d="M3068.739-1511.043c-3.366,3.366-2.851,9.432.994,14.087l13.094-13.093C3078.171-1513.894,3072.105-1514.409,3068.739-1511.043Z" transform="translate(-3066.503 1513.28)" fill="#eb656d"/>
    <path id="Контур_103" data-name="Контур 103" d="M3091.218-1488.565c3.366-3.366,2.851-9.432-.995-14.087l-13.093,13.093C3081.786-1485.714,3087.851-1485.2,3091.218-1488.565Z" transform="translate(-3071.752 1508.03)" fill="#eb656d"/>
  </g>
  <g id="Сгруппировать_184" data-name="Сгруппировать 184" transform="translate(58.833)">
    <path id="Контур_104" data-name="Контур 104" d="M2930.142-1556.758c-3.366,3.366-2.851,9.432.994,14.087l13.093-13.093C2939.574-1559.609,2933.508-1560.124,2930.142-1556.758Z" transform="translate(-2927.905 1558.995)" fill="#eb656d"/>
    <path id="Контур_105" data-name="Контур 105" d="M2952.62-1534.28c3.366-3.366,2.851-9.432-.994-14.088l-13.093,13.093C2943.188-1531.429,2949.254-1530.915,2952.62-1534.28Z" transform="translate(-2933.155 1553.746)" fill="#eb656d"/>
  </g>
  <g id="Сгруппировать_213" data-name="Сгруппировать 213" transform="translate(69.685 35.928)">
    <g id="Сгруппировать_212" data-name="Сгруппировать 212">
      <path id="Контур_106" data-name="Контур 106" d="M3023.637-1431.752h-4.549v-6a25.25,25.25,0,0,0-25.221-25.22h-17.749a29.8,29.8,0,0,1-29.77-29.77V-1505.1h4.549v12.359a25.25,25.25,0,0,0,25.221,25.221h17.749a29.8,29.8,0,0,1,29.77,29.769Z" transform="translate(-2946.348 1505.097)" fill="#c6c6c6"/>
      <g id="Сгруппировать_185" data-name="Сгруппировать 185" transform="translate(20.975 22.386)">
        <rect id="Прямоугольник_71" data-name="Прямоугольник 71" width="4.549" height="45.425" transform="translate(0.001 3.217) rotate(-45.001)" fill="#eb656d"/>
        <rect id="Прямоугольник_72" data-name="Прямоугольник 72" width="45.425" height="4.549" transform="translate(0 32.118) rotate(-44.993)" fill="#eb656d"/>
      </g>
    </g>
    <path id="Контур_107" data-name="Контур 107" d="M3043.043-1404.082l-8.4-8.4,3.216-3.216,5.18,5.18,5.181-5.18,3.216,3.216Z" transform="translate(-2967.7 1483.478)" fill="#c6c6c6"/>
  </g>
  <text id="Act-RIIA_B" data-name="Act-RIIA/B" transform="translate(0 219.029)" fill="#1d1d1b" font-size="12" font-family="Helvetica-Bold, Helvetica" font-weight="700"><tspan x="0" y="0">Act-RIIA/B</tspan></text>
  <g id="Сгруппировать_214" data-name="Сгруппировать 214" transform="translate(107.853 320.814)">
    <rect id="Прямоугольник_62" data-name="Прямоугольник 62" width="18.892" height="32.119" transform="translate(27.623 8.467)" fill="#c6c6c6"/>
    <path id="Контур_99" data-name="Контур 99" d="M3033.926-1122.14l-37.236-37.237,3.217-3.216,34.02,34.02,34.021-34.02,3.217,3.217Z" transform="translate(-2996.689 1162.593)" fill="#eb656d"/>
  </g>
  <g id="Сгруппировать_210" data-name="Сгруппировать 210" transform="translate(0 242.77)">
    <g id="Сгруппировать_205" data-name="Сгруппировать 205">
      <g id="Эллипс_32" data-name="Эллипс 32" fill="none" stroke="#c6c6c6" stroke-width="4">
        <circle cx="9.727" cy="9.727" r="9.727" stroke="none"/>
        <circle cx="9.727" cy="9.727" r="7.727" fill="none"/>
      </g>
      <path id="Контур_73" data-name="Контур 73" d="M2869.487-1222.067h-2.274v-7.926h-1.968v7.926h-2.274v-10.2h6.516Z" transform="translate(-2856.502 1248.484)" fill="#c6c6c6"/>
      <g id="Эллипс_33" data-name="Эллипс 33" transform="translate(0 36.155)" fill="none" stroke="#c6c6c6" stroke-width="4">
        <circle cx="9.727" cy="9.727" r="9.727" stroke="none"/>
        <circle cx="9.727" cy="9.727" r="7.727" fill="none"/>
      </g>
      <path id="Контур_74" data-name="Контур 74" d="M2869.487-1204.953h-6.516v-10.2h2.274v7.926h1.968v-7.926h2.274Z" transform="translate(-2856.502 1244.346)" fill="#c6c6c6"/>
    </g>
    <g id="Сгруппировать_206" data-name="Сгруппировать 206" transform="translate(22.504 0)">
      <g id="Сгруппировать_206-2" data-name="Сгруппировать 206">
        <g id="Эллипс_32-2" data-name="Эллипс 32" fill="none" stroke="#c6c6c6" stroke-width="4">
          <circle cx="9.727" cy="9.727" r="9.727" stroke="none"/>
          <circle cx="9.727" cy="9.727" r="7.727" fill="none"/>
        </g>
        <path id="Контур_73-2" data-name="Контур 73" d="M2869.487-1222.067h-2.274v-7.926h-1.968v7.926h-2.274v-10.2h6.516Z" transform="translate(-2856.502 1248.484)" fill="#c6c6c6"/>
        <g id="Эллипс_33-2" data-name="Эллипс 33" transform="translate(0 36.155)" fill="none" stroke="#c6c6c6" stroke-width="4">
          <circle cx="9.727" cy="9.727" r="9.727" stroke="none"/>
          <circle cx="9.727" cy="9.727" r="7.727" fill="none"/>
        </g>
        <path id="Контур_74-2" data-name="Контур 74" d="M2869.487-1204.953h-6.516v-10.2h2.274v7.926h1.968v-7.926h2.274Z" transform="translate(-2856.502 1244.346)" fill="#c6c6c6"/>
      </g>
      <g id="Сгруппировать_207" data-name="Сгруппировать 207" transform="translate(22.504)">
        <g id="Эллипс_32-3" data-name="Эллипс 32" fill="none" stroke="#c6c6c6" stroke-width="4">
          <circle cx="9.727" cy="9.727" r="9.727" stroke="none"/>
          <circle cx="9.727" cy="9.727" r="7.727" fill="none"/>
        </g>
        <path id="Контур_73-3" data-name="Контур 73" d="M2869.487-1222.067h-2.274v-7.926h-1.968v7.926h-2.274v-10.2h6.516Z" transform="translate(-2856.502 1248.484)" fill="#c6c6c6"/>
        <g id="Эллипс_33-3" data-name="Эллипс 33" transform="translate(0 36.155)" fill="none" stroke="#c6c6c6" stroke-width="4">
          <circle cx="9.727" cy="9.727" r="9.727" stroke="none"/>
          <circle cx="9.727" cy="9.727" r="7.727" fill="none"/>
        </g>
        <path id="Контур_74-3" data-name="Контур 74" d="M2869.487-1204.953h-6.516v-10.2h2.274v7.926h1.968v-7.926h2.274Z" transform="translate(-2856.502 1244.346)" fill="#c6c6c6"/>
      </g>
      <g id="Сгруппировать_208" data-name="Сгруппировать 208" transform="translate(45.008)">
        <g id="Эллипс_32-4" data-name="Эллипс 32" transform="translate(0)" fill="none" stroke="#c6c6c6" stroke-width="4">
          <circle cx="9.727" cy="9.727" r="9.727" stroke="none"/>
          <circle cx="9.727" cy="9.727" r="7.727" fill="none"/>
        </g>
        <path id="Контур_73-4" data-name="Контур 73" d="M2869.487-1222.067h-2.274v-7.926h-1.968v7.926h-2.274v-10.2h6.516Z" transform="translate(-2856.502 1248.484)" fill="#c6c6c6"/>
        <g id="Эллипс_33-4" data-name="Эллипс 33" transform="translate(0 36.155)" fill="none" stroke="#c6c6c6" stroke-width="4">
          <circle cx="9.727" cy="9.727" r="9.727" stroke="none"/>
          <circle cx="9.727" cy="9.727" r="7.727" fill="none"/>
        </g>
        <path id="Контур_74-4" data-name="Контур 74" d="M2869.487-1204.953h-6.516v-10.2h2.274v7.926h1.968v-7.926h2.274Z" transform="translate(-2856.502 1244.346)" fill="#c6c6c6"/>
      </g>
      <g id="Сгруппировать_209" data-name="Сгруппировать 209" transform="translate(67.512)">
        <g id="Эллипс_32-5" data-name="Эллипс 32" transform="translate(0)" fill="none" stroke="#c6c6c6" stroke-width="4">
          <circle cx="9.727" cy="9.727" r="9.727" stroke="none"/>
          <circle cx="9.727" cy="9.727" r="7.727" fill="none"/>
        </g>
        <path id="Контур_73-5" data-name="Контур 73" d="M2869.487-1222.067h-2.274v-7.926h-1.968v7.926h-2.274v-10.2h6.516Z" transform="translate(-2856.502 1248.484)" fill="#c6c6c6"/>
        <g id="Эллипс_33-5" data-name="Эллипс 33" transform="translate(0 36.155)" fill="none" stroke="#c6c6c6" stroke-width="4">
          <circle cx="9.727" cy="9.727" r="9.727" stroke="none"/>
          <circle cx="9.727" cy="9.727" r="7.727" fill="none"/>
        </g>
        <path id="Контур_74-5" data-name="Контур 74" d="M2869.487-1204.953h-6.516v-10.2h2.274v7.926h1.968v-7.926h2.274Z" transform="translate(-2856.502 1244.346)" fill="#c6c6c6"/>
      </g>
    </g>
  </g>
  <g id="Сгруппировать_211" data-name="Сгруппировать 211" transform="translate(180.587 242.77)">
    <g id="Сгруппировать_205-2" data-name="Сгруппировать 205">
      <g id="Эллипс_32-6" data-name="Эллипс 32" fill="none" stroke="#c6c6c6" stroke-width="4">
        <circle cx="9.727" cy="9.727" r="9.727" stroke="none"/>
        <circle cx="9.727" cy="9.727" r="7.727" fill="none"/>
      </g>
      <path id="Контур_73-6" data-name="Контур 73" d="M2869.487-1222.067h-2.274v-7.926h-1.968v7.926h-2.274v-10.2h6.516Z" transform="translate(-2856.502 1248.484)" fill="#c6c6c6"/>
      <g id="Эллипс_33-6" data-name="Эллипс 33" transform="translate(0 36.155)" fill="none" stroke="#c6c6c6" stroke-width="4">
        <circle cx="9.727" cy="9.727" r="9.727" stroke="none"/>
        <circle cx="9.727" cy="9.727" r="7.727" fill="none"/>
      </g>
      <path id="Контур_74-6" data-name="Контур 74" d="M2869.487-1204.953h-6.516v-10.2h2.274v7.926h1.968v-7.926h2.274Z" transform="translate(-2856.502 1244.346)" fill="#c6c6c6"/>
    </g>
    <g id="Сгруппировать_206-3" data-name="Сгруппировать 206" transform="translate(22.504 0)">
      <g id="Сгруппировать_206-4" data-name="Сгруппировать 206">
        <g id="Эллипс_32-7" data-name="Эллипс 32" fill="none" stroke="#c6c6c6" stroke-width="4">
          <circle cx="9.727" cy="9.727" r="9.727" stroke="none"/>
          <circle cx="9.727" cy="9.727" r="7.727" fill="none"/>
        </g>
        <path id="Контур_73-7" data-name="Контур 73" d="M2869.487-1222.067h-2.274v-7.926h-1.968v7.926h-2.274v-10.2h6.516Z" transform="translate(-2856.502 1248.484)" fill="#c6c6c6"/>
        <g id="Эллипс_33-7" data-name="Эллипс 33" transform="translate(0 36.155)" fill="none" stroke="#c6c6c6" stroke-width="4">
          <circle cx="9.727" cy="9.727" r="9.727" stroke="none"/>
          <circle cx="9.727" cy="9.727" r="7.727" fill="none"/>
        </g>
        <path id="Контур_74-7" data-name="Контур 74" d="M2869.487-1204.953h-6.516v-10.2h2.274v7.926h1.968v-7.926h2.274Z" transform="translate(-2856.502 1244.346)" fill="#c6c6c6"/>
      </g>
      <g id="Сгруппировать_207-2" data-name="Сгруппировать 207" transform="translate(22.504)">
        <g id="Эллипс_32-8" data-name="Эллипс 32" fill="none" stroke="#c6c6c6" stroke-width="4">
          <circle cx="9.727" cy="9.727" r="9.727" stroke="none"/>
          <circle cx="9.727" cy="9.727" r="7.727" fill="none"/>
        </g>
        <path id="Контур_73-8" data-name="Контур 73" d="M2869.487-1222.067h-2.274v-7.926h-1.968v7.926h-2.274v-10.2h6.516Z" transform="translate(-2856.502 1248.484)" fill="#c6c6c6"/>
        <g id="Эллипс_33-8" data-name="Эллипс 33" transform="translate(0 36.155)" fill="none" stroke="#c6c6c6" stroke-width="4">
          <circle cx="9.727" cy="9.727" r="9.727" stroke="none"/>
          <circle cx="9.727" cy="9.727" r="7.727" fill="none"/>
        </g>
        <path id="Контур_74-8" data-name="Контур 74" d="M2869.487-1204.953h-6.516v-10.2h2.274v7.926h1.968v-7.926h2.274Z" transform="translate(-2856.502 1244.346)" fill="#c6c6c6"/>
      </g>
      <g id="Сгруппировать_208-2" data-name="Сгруппировать 208" transform="translate(45.008)">
        <g id="Эллипс_32-9" data-name="Эллипс 32" transform="translate(0)" fill="none" stroke="#c6c6c6" stroke-width="4">
          <circle cx="9.727" cy="9.727" r="9.727" stroke="none"/>
          <circle cx="9.727" cy="9.727" r="7.727" fill="none"/>
        </g>
        <path id="Контур_73-9" data-name="Контур 73" d="M2869.487-1222.067h-2.274v-7.926h-1.968v7.926h-2.274v-10.2h6.516Z" transform="translate(-2856.502 1248.484)" fill="#c6c6c6"/>
        <g id="Эллипс_33-9" data-name="Эллипс 33" transform="translate(0 36.155)" fill="none" stroke="#c6c6c6" stroke-width="4">
          <circle cx="9.727" cy="9.727" r="9.727" stroke="none"/>
          <circle cx="9.727" cy="9.727" r="7.727" fill="none"/>
        </g>
        <path id="Контур_74-9" data-name="Контур 74" d="M2869.487-1204.953h-6.516v-10.2h2.274v7.926h1.968v-7.926h2.274Z" transform="translate(-2856.502 1244.346)" fill="#c6c6c6"/>
      </g>
      <g id="Сгруппировать_209-2" data-name="Сгруппировать 209" transform="translate(67.512)">
        <g id="Эллипс_32-10" data-name="Эллипс 32" transform="translate(0)" fill="none" stroke="#c6c6c6" stroke-width="4">
          <circle cx="9.727" cy="9.727" r="9.727" stroke="none"/>
          <circle cx="9.727" cy="9.727" r="7.727" fill="none"/>
        </g>
        <path id="Контур_73-10" data-name="Контур 73" d="M2869.487-1222.067h-2.274v-7.926h-1.968v7.926h-2.274v-10.2h6.516Z" transform="translate(-2856.502 1248.484)" fill="#c6c6c6"/>
        <g id="Эллипс_33-10" data-name="Эллипс 33" transform="translate(0 36.155)" fill="none" stroke="#c6c6c6" stroke-width="4">
          <circle cx="9.727" cy="9.727" r="9.727" stroke="none"/>
          <circle cx="9.727" cy="9.727" r="7.727" fill="none"/>
        </g>
        <path id="Контур_74-10" data-name="Контур 74" d="M2869.487-1204.953h-6.516v-10.2h2.274v7.926h1.968v-7.926h2.274Z" transform="translate(-2856.502 1244.346)" fill="#c6c6c6"/>
      </g>
    </g>
  </g>
</svg>
