<svg xmlns="http://www.w3.org/2000/svg" width="48.395" height="48.396" viewBox="0 0 48.395 48.396">
  <g id="Сгруппировать_117" data-name="Сгруппировать 117" transform="translate(-156.631 -816.332)">
    <rect id="Прямоугольник_48" data-name="Прямоугольник 48" width="24.786" height="3.723" transform="translate(170.722 847.952) rotate(-44.996)" fill="#153558"/>
    <g id="Сгруппировать_101" data-name="Сгруппировать 101" transform="translate(171.494 831.197)">
      <ellipse id="Эллипс_30" data-name="Эллипс 30" cx="1.241" cy="1.241" rx="1.241" ry="1.241" transform="translate(1.862 1.862)"/>
      <path id="Контур_31" data-name="Контур 31" d="M4422.473-3417.153a3.106,3.106,0,0,1-3.1-3.1,3.106,3.106,0,0,1,3.1-3.1,3.106,3.106,0,0,1,3.1,3.1A3.106,3.106,0,0,1,4422.473-3417.153Zm0-3.723a.621.621,0,0,0-.62.622.62.62,0,0,0,.62.62.62.62,0,0,0,.62-.62A.621.621,0,0,0,4422.473-3420.876Z" transform="translate(-4419.369 3423.358)" fill="#153558"/>
    </g>
    <g id="Сгруппировать_102" data-name="Сгруппировать 102" transform="translate(183.905 843.609)">
      <ellipse id="Эллипс_31" data-name="Эллипс 31" cx="1.241" cy="1.241" rx="1.241" ry="1.241" transform="translate(1.862 1.861)"/>
      <path id="Контур_32" data-name="Контур 32" d="M4431.64-3407.986a3.106,3.106,0,0,1-3.1-3.1,3.106,3.106,0,0,1,3.1-3.1,3.1,3.1,0,0,1,3.1,3.1A3.105,3.105,0,0,1,4431.64-3407.986Zm0-3.723a.621.621,0,0,0-.621.62.622.622,0,0,0,.621.621.621.621,0,0,0,.62-.621A.62.62,0,0,0,4431.64-3411.709Z" transform="translate(-4428.536 3414.191)" fill="#153558"/>
    </g>
    <path id="Контур_33" data-name="Контур 33" d="M4432.589-3385.941a7.3,7.3,0,0,1-5.164-2.129l-1.763-1.761a3.571,3.571,0,0,0-2.532-1.044h-2.482a7.33,7.33,0,0,1-7.322-7.322v-2.483a3.588,3.588,0,0,0-1.047-2.535l-1.734-1.733a7.331,7.331,0,0,1-.026-10.353l1.765-1.764a3.582,3.582,0,0,0,1.042-2.532v-2.48a7.33,7.33,0,0,1,7.322-7.322h2.483a3.575,3.575,0,0,0,2.533-1.048l1.736-1.734a7.266,7.266,0,0,1,5.168-2.154h.021a7.273,7.273,0,0,1,5.163,2.13l1.764,1.763a3.575,3.575,0,0,0,2.532,1.044h2.48a7.33,7.33,0,0,1,7.322,7.322v2.482a3.589,3.589,0,0,0,1.047,2.536l1.735,1.732a7.27,7.27,0,0,1,2.154,5.168,7.265,7.265,0,0,1-2.13,5.185l-1.762,1.763a3.581,3.581,0,0,0-1.044,2.532v2.482a7.33,7.33,0,0,1-7.322,7.322h-2.482a3.576,3.576,0,0,0-2.535,1.046l-1.734,1.734A7.3,7.3,0,0,1,4432.589-3385.941Zm-11.941-39.736a3.6,3.6,0,0,0-3.6,3.6v2.482a7.278,7.278,0,0,1-2.13,5.161l-1.743,1.741a3.61,3.61,0,0,0,0,5.107l1.742,1.741a7.282,7.282,0,0,1,2.134,5.163v2.485a3.6,3.6,0,0,0,3.6,3.6h2.483a7.281,7.281,0,0,1,5.16,2.13l1.741,1.741a3.61,3.61,0,0,0,5.108,0l1.74-1.742a7.284,7.284,0,0,1,5.164-2.134h2.483a3.6,3.6,0,0,0,3.6-3.6v-2.483a7.283,7.283,0,0,1,2.131-5.16l1.74-1.741a3.582,3.582,0,0,0,1.065-2.565,3.573,3.573,0,0,0-1.061-2.543l-1.742-1.741a7.287,7.287,0,0,1-2.134-5.162v-2.484a3.6,3.6,0,0,0-3.6-3.6h-2.482a7.282,7.282,0,0,1-5.162-2.131l-1.741-1.742a3.423,3.423,0,0,0-2.564-1.064,3.572,3.572,0,0,0-2.542,1.062l-1.744,1.741a7.278,7.278,0,0,1-5.161,2.134Z" transform="translate(-4251.762 4250.669)" fill="#25b4b4"/>
  </g>
</svg>
