<svg id="Сгруппировать_63" data-name="Сгруппировать 63" xmlns="http://www.w3.org/2000/svg" width="42.7" height="53.144" viewBox="0 0 42.7 53.144">
  <g id="Сгруппировать_56" data-name="Сгруппировать 56">
    <rect id="Прямоугольник_11" data-name="Прямоугольник 11" width="36.477" height="2.131" transform="translate(3.188 1.97)" fill="#c6c6c6"/>
    <circle id="Эллипс_1" data-name="Эллипс 1" cx="3.036" cy="3.036" r="3.036" fill="#c6c6c6"/>
    <circle id="Эллипс_2" data-name="Эллипс 2" cx="3.036" cy="3.036" r="3.036" transform="translate(36.628)" fill="#c6c6c6"/>
  </g>
  <g id="Сгруппировать_57" data-name="Сгруппировать 57" transform="translate(0 7.845)">
    <rect id="Прямоугольник_12" data-name="Прямоугольник 12" width="36.477" height="2.131" transform="translate(3.188 1.97)" fill="#c6c6c6"/>
    <circle id="Эллипс_3" data-name="Эллипс 3" cx="3.036" cy="3.036" r="3.036" fill="#c6c6c6"/>
    <circle id="Эллипс_4" data-name="Эллипс 4" cx="3.036" cy="3.036" r="3.036" transform="translate(36.628)" fill="#c6c6c6"/>
  </g>
  <g id="Сгруппировать_58" data-name="Сгруппировать 58" transform="translate(0 15.691)">
    <rect id="Прямоугольник_13" data-name="Прямоугольник 13" width="36.477" height="2.131" transform="translate(3.188 1.97)" fill="#c6c6c6"/>
    <circle id="Эллипс_5" data-name="Эллипс 5" cx="3.036" cy="3.036" r="3.036" fill="#c6c6c6"/>
    <circle id="Эллипс_6" data-name="Эллипс 6" cx="3.036" cy="3.036" r="3.036" transform="translate(36.628)" fill="#c6c6c6"/>
  </g>
  <g id="Сгруппировать_59" data-name="Сгруппировать 59" transform="translate(0 23.536)">
    <rect id="Прямоугольник_14" data-name="Прямоугольник 14" width="36.477" height="2.131" transform="translate(3.188 1.97)" fill="#c6c6c6"/>
    <circle id="Эллипс_7" data-name="Эллипс 7" cx="3.036" cy="3.036" r="3.036" fill="#c6c6c6"/>
    <circle id="Эллипс_8" data-name="Эллипс 8" cx="3.036" cy="3.036" r="3.036" transform="translate(36.628)" fill="#c6c6c6"/>
  </g>
  <g id="Сгруппировать_60" data-name="Сгруппировать 60" transform="translate(0 31.382)">
    <rect id="Прямоугольник_15" data-name="Прямоугольник 15" width="36.477" height="2.131" transform="translate(3.188 1.97)" fill="#c6c6c6"/>
    <circle id="Эллипс_9" data-name="Эллипс 9" cx="3.036" cy="3.036" r="3.036" fill="#c6c6c6"/>
    <circle id="Эллипс_10" data-name="Эллипс 10" cx="3.036" cy="3.036" r="3.036" transform="translate(36.628)" fill="#c6c6c6"/>
  </g>
  <g id="Сгруппировать_61" data-name="Сгруппировать 61" transform="translate(0 39.227)">
    <rect id="Прямоугольник_16" data-name="Прямоугольник 16" width="36.477" height="2.131" transform="translate(3.188 1.97)" fill="#c6c6c6"/>
    <circle id="Эллипс_11" data-name="Эллипс 11" cx="3.036" cy="3.036" r="3.036" fill="#c6c6c6"/>
    <circle id="Эллипс_12" data-name="Эллипс 12" cx="3.036" cy="3.036" r="3.036" transform="translate(36.628)" fill="#c6c6c6"/>
  </g>
  <g id="Сгруппировать_62" data-name="Сгруппировать 62" transform="translate(0 47.072)">
    <rect id="Прямоугольник_17" data-name="Прямоугольник 17" width="36.477" height="2.131" transform="translate(3.188 1.97)" fill="#c6c6c6"/>
    <circle id="Эллипс_13" data-name="Эллипс 13" cx="3.036" cy="3.036" r="3.036" fill="#c6c6c6"/>
    <circle id="Эллипс_14" data-name="Эллипс 14" cx="3.036" cy="3.036" r="3.036" transform="translate(36.628)" fill="#c6c6c6"/>
  </g>
</svg>
