<svg xmlns="http://www.w3.org/2000/svg" width="44.6" height="52.619" viewBox="0 0 44.6 52.619">
  <g id="Сгруппировать_111" data-name="Сгруппировать 111" transform="translate(-1569.057 -442.086)">
    <g id="Сгруппировать_105" data-name="Сгруппировать 105" transform="translate(1569.057 442.087)">
      <path id="Контур_36" data-name="Контур 36" d="M4703.624-3481.243h-14.571v-13.765h3.724v10.042h10.848Z" transform="translate(-4660.587 3497.378)" fill="#25b4b4"/>
      <path id="Контур_37" data-name="Контур 37" d="M4704.2-3448.353h-14.273v-3.724H4704.2a3.105,3.105,0,0,0,3.1-3.1v-26.534l-11.319-11.321h-16.607a3.107,3.107,0,0,0-3.1,3.1v9.309h-3.724v-9.309a6.835,6.835,0,0,1,6.825-6.827h18.149l13.5,13.5v28.076A6.834,6.834,0,0,1,4704.2-3448.353Z" transform="translate(-4666.428 3496.758)" fill="#25b4b4"/>
      <path id="Контур_38" data-name="Контур 38" d="M4678.193-3463.474a9.32,9.32,0,0,1-9.309-9.309,9.32,9.32,0,0,1,9.309-9.309,9.319,9.319,0,0,1,9.309,9.309A9.32,9.32,0,0,1,4678.193-3463.474Zm0-14.894a5.592,5.592,0,0,0-5.585,5.585,5.592,5.592,0,0,0,5.585,5.585,5.591,5.591,0,0,0,5.585-5.585A5.591,5.591,0,0,0,4678.193-3478.368Z" transform="translate(-4667.726 3501.95)" fill="#153558"/>
      <path id="Контур_39" data-name="Контур 39" d="M4688.966-3453.106l-10.469-5.234-10.468,5.234,5.5-18.322,3.566,1.07-3.021,10.067,4.426-2.212,4.426,2.212-3.021-10.067,3.566-1.07Z" transform="translate(-4668.029 3505.725)" fill="#153558"/>
    </g>
  </g>
</svg>
