<svg xmlns="http://www.w3.org/2000/svg" width="48.37" height="49.092" viewBox="0 0 48.37 49.092">
  <g id="Сгруппировать_106" data-name="Сгруппировать 106" transform="translate(0 0)">
    <path id="Контур_40" data-name="Контур 40" d="M4789.446-3474.923l-7.6-7.6,2.632-2.633,4.966,4.965,9.929-9.93,2.633,2.633Z" transform="translate(-4767.746 3507.348)" fill="#153558"/>
    <path id="Контур_41" data-name="Контур 41" d="M4795.614-3453.751l-.467-.122a31.439,31.439,0,0,1-19.333-14.592,31.448,31.448,0,0,1-3.355-23.99c.086-.329.176-.655.271-.979l.411-1.4,1.46.066a27.791,27.791,0,0,0,19.781-6.981l1.234-1.093,1.233,1.093a27.8,27.8,0,0,0,19.782,6.981l1.458-.066.413,1.4a31.438,31.438,0,0,1-2.582,24.085,31.441,31.441,0,0,1-18.857,15.205c-.326.1-.653.187-.982.272Zm-19.676-37.265a27.723,27.723,0,0,0,3.084,20.663,27.736,27.736,0,0,0,16.593,12.75l.4-.115a27.744,27.744,0,0,0,16.637-13.416,27.73,27.73,0,0,0,2.645-19.883,31.454,31.454,0,0,1-19.681-6.908A31.458,31.458,0,0,1,4775.938-3491.016Z" transform="translate(-4771.432 3502.843)" fill="#25b4b4"/>
  </g>
</svg>
