<svg id="Сгруппировать_100" data-name="Сгруппировать 100" xmlns="http://www.w3.org/2000/svg" width="48.405" height="43.441" viewBox="0 0 48.405 43.441">
  <rect id="Прямоугольник_41" data-name="Прямоугольник 41" width="3.723" height="13.653" transform="translate(29.787 29.788)" fill="#153558"/>
  <rect id="Прямоугольник_42" data-name="Прямоугольник 42" width="3.723" height="13.653" transform="translate(14.893 29.788)" fill="#153558"/>
  <path id="Контур_30" data-name="Контур 30" d="M4151.347-3457.747h-39.716a4.349,4.349,0,0,1-4.344-4.344v-24.824a4.349,4.349,0,0,1,4.344-4.344h39.716a4.35,4.35,0,0,1,4.345,4.344v24.824A4.35,4.35,0,0,1,4151.347-3457.747Zm-39.716-29.788a.621.621,0,0,0-.62.62v24.824a.62.62,0,0,0,.62.62h39.716a.621.621,0,0,0,.622-.62v-24.824a.622.622,0,0,0-.622-.62Z" transform="translate(-4107.287 3491.258)" fill="#25b4b4"/>
  <rect id="Прямоугольник_43" data-name="Прямоугольник 43" width="28.546" height="3.723" transform="translate(9.928 39.717)" fill="#25b4b4"/>
  <rect id="Прямоугольник_44" data-name="Прямоугольник 44" width="3.723" height="13.653" transform="translate(29.787 9.929)" fill="#153558"/>
  <rect id="Прямоугольник_45" data-name="Прямоугольник 45" width="3.723" height="6.206" transform="translate(22.34 17.376)" fill="#153558"/>
  <rect id="Прямоугольник_46" data-name="Прямоугольник 46" width="3.723" height="8.688" transform="translate(14.893 14.894)" fill="#153558"/>
  <rect id="Прямоугольник_47" data-name="Прямоугольник 47" width="3.723" height="6.206" transform="translate(22.34 17.376)" fill="#153558"/>
</svg>
