<svg xmlns="http://www.w3.org/2000/svg" width="47.261" height="48.417" viewBox="0 0 47.261 48.417">
  <g id="Сгруппировать_107" data-name="Сгруппировать 107" transform="translate(0 0)">
    <path id="Контур_42" data-name="Контур 42" d="M4320.8-3546.652a1.863,1.863,0,0,1-1.862-1.862,1.873,1.873,0,0,1,1.862-1.874,1.851,1.851,0,0,1,1.862,1.85v.024A1.862,1.862,0,0,1,4320.8-3546.652Z" transform="translate(-4287.483 3592.86)" fill="#153558"/>
    <path id="Контур_43" data-name="Контур 43" d="M4326.553-3551.235a1.862,1.862,0,0,1-1.861-1.862,1.872,1.872,0,0,1,1.861-1.874,1.851,1.851,0,0,1,1.862,1.85v.024A1.862,1.862,0,0,1,4326.553-3551.235Z" transform="translate(-4285.446 3591.238)" fill="#153558"/>
    <path id="Контур_44" data-name="Контур 44" d="M4329.724-3557.854a1.861,1.861,0,0,1-1.861-1.862,1.872,1.872,0,0,1,1.861-1.874,1.851,1.851,0,0,1,1.861,1.849v.024A1.86,1.86,0,0,1,4329.724-3557.854Z" transform="translate(-4284.324 3588.895)" fill="#153558"/>
    <path id="Контур_45" data-name="Контур 45" d="M4329.724-3565.187a1.862,1.862,0,0,1-1.861-1.862,1.872,1.872,0,0,1,1.861-1.874,1.851,1.851,0,0,1,1.861,1.85v.024A1.861,1.861,0,0,1,4329.724-3565.187Z" transform="translate(-4284.324 3586.299)" fill="#153558"/>
    <path id="Контур_46" data-name="Контур 46" d="M4326.553-3571.805a1.862,1.862,0,0,1-1.861-1.862,1.872,1.872,0,0,1,1.861-1.874,1.85,1.85,0,0,1,1.862,1.848v.026A1.862,1.862,0,0,1,4326.553-3571.805Z" transform="translate(-4285.446 3583.956)" fill="#153558"/>
    <path id="Контур_47" data-name="Контур 47" d="M4320.8-3576.388a1.862,1.862,0,0,1-1.862-1.862,1.873,1.873,0,0,1,1.862-1.875,1.851,1.851,0,0,1,1.862,1.849v.026A1.862,1.862,0,0,1,4320.8-3576.388Z" transform="translate(-4287.483 3582.333)" fill="#153558"/>
    <path id="Контур_48" data-name="Контур 48" d="M4313.646-3578.021a1.861,1.861,0,0,1-1.862-1.861,1.871,1.871,0,0,1,1.862-1.874,1.85,1.85,0,0,1,1.861,1.848v.026A1.862,1.862,0,0,1,4313.646-3578.021Z" transform="translate(-4290.015 3581.756)" fill="#153558"/>
    <path id="Контур_49" data-name="Контур 49" d="M4306.5-3576.388a1.862,1.862,0,0,1-1.861-1.862,1.872,1.872,0,0,1,1.861-1.875,1.852,1.852,0,0,1,1.862,1.849v.026A1.862,1.862,0,0,1,4306.5-3576.388Z" transform="translate(-4292.545 3582.333)" fill="#153558"/>
    <path id="Контур_50" data-name="Контур 50" d="M4300.74-3571.805a1.862,1.862,0,0,1-1.862-1.862,1.872,1.872,0,0,1,1.862-1.874,1.851,1.851,0,0,1,1.862,1.848v.026A1.862,1.862,0,0,1,4300.74-3571.805Z" transform="translate(-4294.583 3583.956)" fill="#153558"/>
    <path id="Контур_51" data-name="Контур 51" d="M4297.568-3565.187a1.861,1.861,0,0,1-1.861-1.862,1.871,1.871,0,0,1,1.861-1.874,1.852,1.852,0,0,1,1.862,1.85v.024A1.862,1.862,0,0,1,4297.568-3565.187Z" transform="translate(-4295.707 3586.299)" fill="#153558"/>
    <path id="Контур_52" data-name="Контур 52" d="M4297.568-3557.854a1.86,1.86,0,0,1-1.861-1.862,1.871,1.871,0,0,1,1.861-1.874,1.851,1.851,0,0,1,1.862,1.849v.024A1.861,1.861,0,0,1,4297.568-3557.854Z" transform="translate(-4295.707 3588.895)" fill="#153558"/>
    <path id="Контур_53" data-name="Контур 53" d="M4300.74-3551.235a1.862,1.862,0,0,1-1.862-1.862,1.872,1.872,0,0,1,1.862-1.874,1.851,1.851,0,0,1,1.862,1.85v.024A1.862,1.862,0,0,1,4300.74-3551.235Z" transform="translate(-4294.583 3591.238)" fill="#153558"/>
    <path id="Контур_54" data-name="Контур 54" d="M4306.5-3546.652a1.862,1.862,0,0,1-1.861-1.862,1.872,1.872,0,0,1,1.861-1.874,1.852,1.852,0,0,1,1.862,1.85v.024A1.863,1.863,0,0,1,4306.5-3546.652Z" transform="translate(-4292.545 3592.86)" fill="#153558"/>
    <path id="Контур_55" data-name="Контур 55" d="M4313.646-3545.02a1.861,1.861,0,0,1-1.862-1.862,1.871,1.871,0,0,1,1.862-1.874,1.85,1.85,0,0,1,1.861,1.848v.026A1.862,1.862,0,0,1,4313.646-3545.02Z" transform="translate(-4290.015 3593.438)" fill="#153558"/>
    <path id="Контур_56" data-name="Контур 56" d="M4314.295-3558.41a4.349,4.349,0,0,1-4.344-4.345,4.349,4.349,0,0,1,4.344-4.344,4.35,4.35,0,0,1,4.343,4.344A4.35,4.35,0,0,1,4314.295-3558.41Zm0-4.965a.62.62,0,0,0-.62.62.621.621,0,0,0,.62.622.621.621,0,0,0,.62-.622A.621.621,0,0,0,4314.295-3563.375Z" transform="translate(-4290.664 3586.945)" fill="#153558"/>
    <path id="Контур_57" data-name="Контур 57" d="M4316.891-3545.886a14.29,14.29,0,0,1-14.274-14.274,14.289,14.289,0,0,1,14.274-14.272,14.29,14.29,0,0,1,14.273,14.272A14.29,14.29,0,0,1,4316.891-3545.886Zm0-24.823a10.56,10.56,0,0,0-10.55,10.549,10.561,10.561,0,0,0,10.55,10.55,10.561,10.561,0,0,0,10.55-10.55A10.561,10.561,0,0,0,4316.891-3570.708Z" transform="translate(-4293.26 3584.349)" fill="#25b4b4"/>
  </g>
</svg>
