<svg id="Сгруппировать_104" data-name="Сгруппировать 104" xmlns="http://www.w3.org/2000/svg" width="43.475" height="46.117" viewBox="0 0 43.475 46.117">
  <path id="Контур_34" data-name="Контур 34" d="M4564.7-3449.529l-3.7-.41.206-1.851c1.423-12.818,7.465-21.429,18.47-26.319l1.7-.755,1.511,3.4-1.7.757c-9.827,4.366-15,11.78-16.282,23.328Z" transform="translate(-4558.675 3495.646)" fill="#153558"/>
  <path id="Контур_35" data-name="Контур 35" d="M4573.59-3452.782h-8.251l-.547-.545a17.82,17.82,0,0,1-5.509-13.729c.03-11.043,5.547-24.2,31.65-24.2h11.825v6.827C4601.554-3463.394,4591.741-3452.782,4573.59-3452.782Zm-6.687-3.724h6.688c16.041,0,24.363-9.17,25.447-28.033v-3h-8.1c-18.493,0-27.89,6.892-27.926,20.485A14.166,14.166,0,0,0,4566.9-3456.505Z" transform="translate(-4559.282 3491.258)" fill="#25b4b4"/>
</svg>
