<svg xmlns="http://www.w3.org/2000/svg" width="1132" height="483" viewBox="0 0 1132 483">
  <g id="Сгруппировать_238" data-name="Сгруппировать 238" transform="translate(-389 -5280)">
    <text id="Control_Group" data-name="Control Group" transform="translate(443 5306)" fill="#2b2b2b" font-size="26" font-family="PTSans-Regular, PT Sans"><tspan x="0" y="0">Control Group</tspan></text>
    <text id="Injected_with_Mioyes" data-name="Injected with Mioyes" transform="translate(731 5306)" fill="#2b2b2b" font-size="26" font-family="PTSans-Regular, PT Sans"><tspan x="0" y="0">Injected with Mioyes</tspan></text>
    <text id="_1250" data-name="1250" transform="translate(389 5370)" fill="#2b2b2b" font-size="20" font-family="PTSans-Regular, PT Sans"><tspan x="0" y="0">1250</tspan></text>
    <text id="_1000" data-name="1000" transform="translate(389 5439)" fill="#2b2b2b" font-size="20" font-family="PTSans-Regular, PT Sans"><tspan x="0" y="0">1000</tspan></text>
    <text id="_750" data-name="750" transform="translate(389 5508)" fill="#2b2b2b" font-size="20" font-family="PTSans-Regular, PT Sans"><tspan x="0" y="0">750</tspan></text>
    <text id="_500" data-name="500" transform="translate(389 5578)" fill="#2b2b2b" font-size="20" font-family="PTSans-Regular, PT Sans"><tspan x="0" y="0">500</tspan></text>
    <text id="_250" data-name="250" transform="translate(389 5647)" fill="#2b2b2b" font-size="20" font-family="PTSans-Regular, PT Sans"><tspan x="0" y="0">250</tspan></text>
    <text id="_0" data-name="0" transform="translate(389 5716)" fill="#2b2b2b" font-size="20" font-family="PTSans-Regular, PT Sans"><tspan x="0" y="0">0</tspan></text>
    <path id="Контур_112" data-name="Контур 112" d="M-473,8610H589.7" transform="translate(930.6 -3250)" fill="none" stroke="#e3e3e3" stroke-width="1"/>
    <path id="Контур_113" data-name="Контур 113" d="M-473,8610H589.7" transform="translate(930.6 -3180)" fill="none" stroke="#e3e3e3" stroke-width="1"/>
    <path id="Контур_114" data-name="Контур 114" d="M-473,8610H589.7" transform="translate(930.6 -3110)" fill="none" stroke="#e3e3e3" stroke-width="1"/>
    <path id="Контур_115" data-name="Контур 115" d="M-473,8610H589.7" transform="translate(930.6 -3043.5)" fill="none" stroke="#e3e3e3" stroke-width="1"/>
    <path id="Контур_116" data-name="Контур 116" d="M-473,8610H589.7" transform="translate(930.6 -2971.5)" fill="none" stroke="#e3e3e3" stroke-width="1"/>
    <path id="Контур_117" data-name="Контур 117" d="M-473,8610H589.7" transform="translate(930.6 -2900)" fill="none" stroke="#e3e3e3" stroke-width="1"/>
    <text id="Before_injection" data-name="Before injection" transform="translate(528 5757)" fill="#2b2b2b" font-size="20" font-family="PTSans-Regular, PT Sans"><tspan x="0" y="0">Before injection</tspan></text>
    <text id="The_1st_injection" data-name="The 1st injection" transform="translate(786 5757)" fill="#2b2b2b" font-size="20" font-family="PTSans-Regular, PT Sans"><tspan x="0" y="0">The 1st injection</tspan></text>
    <text id="The_2nd_injection" data-name="The 2nd injection" transform="translate(1053 5757)" fill="#2b2b2b" font-size="20" font-family="PTSans-Regular, PT Sans"><tspan x="0" y="0">The 2nd injection</tspan></text>
    <text id="Final_daily_weight_gain" data-name="Final daily weight gain" transform="translate(1326 5757)" fill="#2b2b2b" font-size="20" font-family="PTSans-Regular, PT Sans"><tspan x="0" y="0">Final daily weight gain</tspan></text>
    <rect id="Прямоугольник_92" data-name="Прямоугольник 92" width="33" height="33" transform="translate(389 5280)" fill="#ddd"/>
    <rect id="Прямоугольник_93" data-name="Прямоугольник 93" width="33" height="33" transform="translate(677 5280)" fill="#25b5b5"/>
    <text id="_0_767" data-name="0,767" transform="translate(885 5541)" fill="#2b2b2b" font-size="26" font-family="PTSans-Regular, PT Sans"><tspan x="0" y="0">0,767</tspan></text>
    <text id="_0_871" data-name="0,871" transform="translate(1103 5512)" fill="#2b2b2b" font-size="26" font-family="PTSans-Regular, PT Sans"><tspan x="0" y="0">0,871</tspan></text>
    <text id="_0_957" data-name="0,957" transform="translate(835 5413)" fill="#2b2b2b" font-size="26" font-family="PTSans-Bold, PT Sans" font-weight="700"><tspan x="0" y="0">0,957</tspan></text>
    <text id="_0_957-2" data-name="0,957" transform="translate(1103 5417)" fill="#2b2b2b" font-size="26" font-family="PTSans-Bold, PT Sans" font-weight="700"><tspan x="0" y="0">0,957</tspan></text>
    <text id="_1_081" data-name="1,081" transform="translate(1384 5389)" fill="#2b2b2b" font-size="26" font-family="PTSans-Bold, PT Sans" font-weight="700"><tspan x="0" y="0">1,081</tspan></text>
    <text id="_0_712" data-name="0,712" transform="translate(1384 5553)" fill="#2b2b2b" font-size="26" font-family="PTSans-Bold, PT Sans" font-weight="700"><tspan x="0" y="0">0,712</tspan></text>
    <g id="Сгруппировать_237" data-name="Сгруппировать 237" transform="translate(0 -12)">
      <path id="Контур_119" data-name="Контур 119" d="M-248,9966.3l264.7-156,270-29.3,264.6,48" transform="translate(862 -4304)" fill="none" stroke="#ddd" stroke-width="5"/>
      <path id="Контур_120" data-name="Контур 120" d="M-258,9969.733,17.333,9755.467H282.267l266.667-33.733" transform="translate(862 -4302.733)" fill="none" stroke="#25b5b5" stroke-width="5"/>
    </g>
  </g>
</svg>
