<?xml version="1.0" encoding="utf-8"?>
<!-- Generator: Adobe Illustrator 26.0.2, SVG Export Plug-In . SVG Version: 6.00 Build 0)  -->
<svg version="1.1" id="Слой_1" xmlns="http://www.w3.org/2000/svg" xmlns:xlink="http://www.w3.org/1999/xlink" x="0px" y="0px"
	 viewBox="0 0 425.197 63.732" style="enable-background:new 0 0 425.197 63.732;" xml:space="preserve">
<style type="text/css">
	.st0{fill:#173658;}
</style>
<g>
	<path class="st0" d="M348.699,1.129c1.604,0.753,2.84,1.818,3.704,3.193c0.869,1.379,1.301,3.003,1.301,4.876v0.341
		c0,1.847-0.432,3.464-1.301,4.854c-0.864,1.393-2.106,2.458-3.726,3.195c-1.617,0.738-3.49,1.107-5.62,1.107
		c-2.156,0-4.04-0.369-5.642-1.107c-1.604-0.738-2.846-1.803-3.726-3.195c-0.88-1.39-1.318-3.008-1.318-4.854V9.198
		c0-1.846,0.439-3.464,1.318-4.856c0.88-1.388,2.13-2.46,3.748-3.213c1.617-0.753,3.49-1.128,5.62-1.128
		C345.213,0,347.097,0.376,348.699,1.129 M350.126,9.069c0-1.958-0.605-3.449-1.812-4.47c-1.207-1.021-2.957-1.534-5.258-1.534
		c-2.301,0-4.066,0.519-5.302,1.554c-1.235,1.039-1.851,2.521-1.851,4.45l0,0.554c0,1.932,0.615,3.414,1.851,4.448
		c1.235,1.039,3.001,1.556,5.302,1.556c2.272,0,4.018-0.517,5.238-1.556c1.22-1.035,1.831-2.517,1.831-4.448V9.069z M347.273,5.835
		c0.624,0.539,0.936,1.292,0.936,2.255v0.214c0,0.655-0.142,1.216-0.426,1.683c-0.284,0.467-0.696,0.816-1.235,1.043l1.619,2.3
		v0.297l-3.75,0l-1.491-2.257h-1.233v2.257l-3.534,0V5.025l6.557,0C345.796,5.025,346.649,5.295,347.273,5.835 M341.695,9.113h2.001
		c0.284,0,0.511-0.063,0.681-0.192c0.17-0.127,0.255-0.319,0.255-0.576v-0.17c0-0.225-0.085-0.402-0.255-0.53
		c-0.17-0.127-0.397-0.192-0.681-0.192l-2.001,0V9.113z"/>
	<g>
		<path class="st0" d="M74.991,62.705h-12.8V23.88l-18.21,38.825H31.01l-18.21-39v39H0V6.354h17.78l19.759,41.831L57.21,6.354h17.78
			V62.705z"/>
		<path class="st0" d="M88.391,12.583c-1.433-1.342-2.146-3.104-2.146-5.285c0-2.174,0.713-3.936,2.146-5.278
			C89.821,0.671,91.684,0,93.973,0c2.349,0,4.222,0.671,5.627,2.02c1.402,1.342,2.104,3.104,2.104,5.278
			c0,2.181-0.717,3.943-2.146,5.285c-1.433,1.349-3.296,2.02-5.585,2.02C91.684,14.603,89.821,13.932,88.391,12.583z M100.16,19.671
			v43.033H87.79V19.671H100.16z"/>
		<path class="st0" d="M121.802,61.118c-3.95-1.748-6.987-4.271-9.105-7.564c-2.118-3.293-3.177-7.172-3.177-11.639v-1.111
			c0-4.586,1.045-8.535,3.135-11.856s5.11-5.872,9.063-7.648c3.95-1.776,8.644-2.663,14.086-2.663
			c5.383,0,10.021,0.888,13.915,2.663c3.894,1.776,6.886,4.327,8.979,7.648c2.09,3.32,3.135,7.27,3.135,11.856v1.111
			c0,4.467-1.045,8.347-3.135,11.639c-2.094,3.293-5.086,5.816-8.979,7.564c-3.894,1.741-8.532,2.614-13.915,2.614
			C130.422,63.732,125.756,62.859,121.802,61.118z M145.469,49.646c2.317-1.832,3.478-4.439,3.478-7.815v-0.944
			c0-3.495-1.146-6.187-3.436-8.074c-2.289-1.894-5.554-2.838-9.79-2.838c-4.296,0-7.592,0.937-9.881,2.796
			c-2.289,1.859-3.436,4.565-3.436,8.116v0.944c0,3.376,1.16,5.984,3.481,7.815c2.317,1.832,5.596,2.747,9.836,2.747
			C139.897,52.394,143.148,51.478,145.469,49.646z"/>
		<path class="st0" d="M219.044,6.354v1.978l-24.739,32.471v21.901h-12.971V40.804L156.507,8.333V6.354h14.002l17.267,22.761
			l17.267-22.761H219.044z"/>
		<path class="st0" d="M264.828,44.837h-38.311c0.398,2.691,1.716,4.754,3.95,6.187c2.233,1.433,5.239,2.146,9.021,2.146
			c3.436,0,6.239-0.454,8.417-1.377c2.178-0.916,3.436-2.174,3.778-3.775h13.058c-0.629,5.04-3.135,8.92-7.515,11.639
			c-4.383,2.719-10.297,4.075-17.738,4.075c-5.271,0-9.85-0.874-13.743-2.614c-3.897-1.748-6.875-4.257-8.934-7.522
			c-2.062-3.258-3.093-7.095-3.093-11.506v-1.636c0-4.467,1.045-8.34,3.135-11.639c2.09-3.293,5.068-5.809,8.934-7.557
			s8.431-2.621,13.701-2.621c8.015,0,14.243,1.908,18.682,5.711c4.435,3.81,6.658,9.151,6.658,16.022V44.837z M231.155,30.835
			c-2.178,1.202-3.607,2.894-4.296,5.068h24.823c-0.685-2.174-2.09-3.866-4.208-5.068c-2.118-1.202-4.809-1.804-8.074-1.804
			C236.079,29.032,233.329,29.633,231.155,30.835z"/>
		<path class="st0" d="M279.214,59.916c-4.498-2.552-6.746-6.173-6.746-10.87v-0.426h11.94v0.426c0,1.608,1.087,2.768,3.265,3.481
			c2.178,0.713,5.697,1.07,10.566,1.07c8.018,0,12.027-1.139,12.027-3.432v-0.426c0-0.86-0.517-1.517-1.548-1.978
			c-1.028-0.461-2.891-0.804-5.582-1.035l-11.08-1.111c-6.358-0.629-10.996-1.95-13.918-3.957c-2.919-1.999-4.38-4.837-4.38-8.5
			v-0.86c0-4.292,2.132-7.648,6.4-10.052c4.264-2.405,10.206-3.607,17.822-3.607c7.903,0,13.974,1.265,18.214,3.782
			c4.236,2.524,6.354,6.159,6.354,10.912v0.51h-11.94v-0.51c0-1.608-1.017-2.768-3.048-3.481c-2.034-0.713-5.341-1.077-9.923-1.077
			c-3.722,0-6.585,0.259-8.588,0.776c-2.006,0.517-3.009,1.258-3.009,2.23v0.517c0,0.86,0.475,1.517,1.419,1.978
			c0.944,0.454,2.503,0.797,4.68,1.028l11.255,1.118c6.756,0.685,11.667,2.034,14.732,4.034c3.062,2.006,4.593,4.9,4.593,8.675v0.86
			c0,4.355-2.178,7.731-6.526,10.136c-4.355,2.405-10.395,3.607-18.126,3.607C289.994,63.732,283.709,62.46,279.214,59.916z"/>
		<path class="st0" d="M381.129,6.354v22.419h31.181V6.354h12.887v56.35H412.31V40.286h-31.181v22.419h-12.883V6.354H381.129z"/>
	</g>
</g>
</svg>
