<svg xmlns="http://www.w3.org/2000/svg" width="239.4" height="93.013" viewBox="0 0 239.4 93.013"><g transform="translate(-224.256 -221.427)"><path d="M234.69,292.194l-10.434,5.973V248.058l10.434-5.973Z" transform="translate(0 -8.085)" fill="#1c3b6a" fill-rule="evenodd"/><path d="M224.256,330.389l42.794,24.358V343.082l-32.36-18.666Z" transform="translate(0 -40.308)" fill="#006799" fill-rule="evenodd"/><path d="M337.364,330.389l-42.794,24.358V343.082l32.361-18.666Z" transform="translate(-27.519 -40.308)" fill="#00a894" fill-rule="evenodd"/><path d="M260.111,309.731l20.972,11.937V309.837l-10.538-6.078Z" transform="translate(-14.033 -32.222)" fill="#006799" fill-rule="evenodd"/><path d="M270.545,271.536l-10.434,5.973V227.4l10.434-5.973Z" transform="translate(-14.033)" fill="#1c3b6a" fill-rule="evenodd"/><path d="M315.546,309.727l-20.977,11.94V309.835l10.543-6.081Z" transform="translate(-27.519 -32.221)" fill="#00a894" fill-rule="evenodd"/><path d="M390.43,239.826a4.224,4.224,0,0,0,2.108-.542,3.972,3.972,0,0,0,1.536-1.565,4.858,4.858,0,0,0,.572-2.409,4.794,4.794,0,0,0-.572-2.379,3.973,3.973,0,0,0-1.536-1.566,4.371,4.371,0,0,0-4.215,0,4.079,4.079,0,0,0-1.551,1.566,4.7,4.7,0,0,0-.587,2.379,4.782,4.782,0,0,0,.587,2.394,4.049,4.049,0,0,0,1.551,1.581,4.224,4.224,0,0,0,2.108.542m0,3.643a8.389,8.389,0,0,1-4.246-1.069,7.594,7.594,0,0,1-2.906-2.921,8.86,8.86,0,0,1,0-8.326,7.558,7.558,0,0,1,2.906-2.935,8.9,8.9,0,0,1,8.461,0,7.554,7.554,0,0,1,2.906,2.935,8.86,8.86,0,0,1,0,8.326,7.59,7.59,0,0,1-2.906,2.921A8.329,8.329,0,0,1,390.43,243.469Zm-25.383-15.838h3.7v1.927h.241a4.836,4.836,0,0,1,1.957-1.761,5.927,5.927,0,0,1,2.74-.648,5.246,5.246,0,0,1,4.215,1.686,6.848,6.848,0,0,1,1.445,4.607v9.545H375.4v-9.063a3.244,3.244,0,0,0-.752-2.288,2.73,2.73,0,0,0-2.108-.813,3.125,3.125,0,0,0-2.575,1.235,4.838,4.838,0,0,0-.978,3.1v7.829h-3.944Zm-18.127-6.2h3.944v5.45l-.24,2.68h.24a4.807,4.807,0,0,1,1.928-1.747,5.82,5.82,0,0,1,2.74-.662,5.449,5.449,0,0,1,4.291,1.671,6.7,6.7,0,0,1,1.491,4.622v9.545h-3.944v-9.063a3.131,3.131,0,0,0-.8-2.288,2.839,2.839,0,0,0-2.123-.813,3.152,3.152,0,0,0-2.574,1.265,4.817,4.817,0,0,0-1.009,3.1v7.8h-3.944Zm-10.026,22.041a8.292,8.292,0,0,1-4.156-1.039,7.407,7.407,0,0,1-2.875-2.906,9.037,9.037,0,0,1,0-8.416,7.541,7.541,0,0,1,2.875-2.906,8.2,8.2,0,0,1,4.156-1.054,8.406,8.406,0,0,1,4.4,1.1,6.261,6.261,0,0,1,2.65,3.116l-3.613,1.506a3.472,3.472,0,0,0-3.433-2.047,3.889,3.889,0,0,0-2.966,1.235,5.184,5.184,0,0,0,0,6.534,3.889,3.889,0,0,0,2.966,1.235,3.774,3.774,0,0,0,3.613-2.168l3.584,1.565a7.394,7.394,0,0,1-2.831,3.132A8.259,8.259,0,0,1,336.893,243.469ZM322.68,233.442a3.051,3.051,0,0,0-.527-1.43,3.673,3.673,0,0,0-1.295-1.174,3.888,3.888,0,0,0-1.943-.467,3.7,3.7,0,0,0-2.424.828,4.646,4.646,0,0,0-1.461,2.243Zm-3.644,10.027a8.137,8.137,0,0,1-4.125-1.054,7.541,7.541,0,0,1-2.875-2.906,8.766,8.766,0,0,1-.015-8.25,7.885,7.885,0,0,1,2.83-3,7.531,7.531,0,0,1,4.035-1.114,7.85,7.85,0,0,1,4.095,1.024,6.674,6.674,0,0,1,2.6,2.8,8.7,8.7,0,0,1,.888,3.944,9.359,9.359,0,0,1-.09,1.325H314.851a4.35,4.35,0,0,0,1.461,2.786,4.258,4.258,0,0,0,2.785.948,4.455,4.455,0,0,0,2.334-.587,4.338,4.338,0,0,0,1.55-1.581l3.192,1.566A7.7,7.7,0,0,1,319.037,243.469Zm-17.585-18.187H295.43v-3.854h16.109v3.854h-6.022v17.7h-4.066Z" transform="translate(-27.856 0)" fill="#1c3b6a"/><path d="M536.468,227.631h3.7v1.927h.241a5.141,5.141,0,0,1,1.942-1.761,5.721,5.721,0,0,1,2.725-.648,5.154,5.154,0,0,1,2.831.768,4.36,4.36,0,0,1,1.716,1.942,5.767,5.767,0,0,1,2.063-1.957,6.084,6.084,0,0,1,3.086-.753,4.946,4.946,0,0,1,3.99,1.611,6.5,6.5,0,0,1,1.37,4.351v9.876h-3.914v-9.154a3.3,3.3,0,0,0-.678-2.228,2.357,2.357,0,0,0-1.882-.783,2.918,2.918,0,0,0-2.454,1.22,5.2,5.2,0,0,0-.918,3.207v7.738h-3.944v-9.154a3.208,3.208,0,0,0-.708-2.228,2.561,2.561,0,0,0-2-.783,2.756,2.756,0,0,0-2.333,1.22,5.322,5.322,0,0,0-.888,3.207v7.738h-3.944Zm-12.858,0h3.7v2.047h.241a4.546,4.546,0,0,1,1.777-1.792,5.138,5.138,0,0,1,2.65-.707,5.39,5.39,0,0,1,1.927.331v3.944a12.677,12.677,0,0,0-1.37-.436,5,5,0,0,0-1.189-.136,3.378,3.378,0,0,0-2.77,1.265,4.91,4.91,0,0,0-1.024,3.192v7.648H523.61ZM512.349,240.4a3.517,3.517,0,0,0,2.725-1.1,3.686,3.686,0,0,0,1.009-2.574,7.475,7.475,0,0,0-3.222-.723q-3.071,0-3.072,2.289a1.937,1.937,0,0,0,.663,1.52A2.771,2.771,0,0,0,512.349,240.4Zm-.934,3.071a5.707,5.707,0,0,1-4-1.43,4.838,4.838,0,0,1-1.565-3.749,4.645,4.645,0,0,1,.813-2.71,5.245,5.245,0,0,1,2.228-1.807,7.6,7.6,0,0,1,3.132-.632,10.7,10.7,0,0,1,4.065.692v-.662a2.527,2.527,0,0,0-.949-2.047,3.871,3.871,0,0,0-2.544-.783,4.676,4.676,0,0,0-2.093.5,4.928,4.928,0,0,0-1.671,1.31l-2.529-1.987a7.428,7.428,0,0,1,2.8-2.229,8.62,8.62,0,0,1,3.673-.783,7.85,7.85,0,0,1,5.36,1.626,6.019,6.019,0,0,1,1.837,4.758v9.454h-3.884v-1.565h-.241a5.232,5.232,0,0,1-1.822,1.475A5.686,5.686,0,0,1,511.415,243.469Zm-22.674-22.041h3.945v5.45l-.241,2.68h.241a4.806,4.806,0,0,1,1.927-1.747,5.82,5.82,0,0,1,2.74-.662,5.449,5.449,0,0,1,4.291,1.671,6.7,6.7,0,0,1,1.491,4.622v9.545H499.19v-9.063a3.128,3.128,0,0,0-.8-2.288,2.839,2.839,0,0,0-2.123-.813,3.152,3.152,0,0,0-2.574,1.265,4.817,4.817,0,0,0-1.009,3.1v7.8h-3.945Zm-10.267,9.786a3.16,3.16,0,0,0,2.363-.873,2.9,2.9,0,0,0,.858-2.108,2.847,2.847,0,0,0-.858-2.092,3.192,3.192,0,0,0-2.363-.858H474.83v5.932Zm-7.708-9.786h7.588a8.112,8.112,0,0,1,3.734.858,6.477,6.477,0,0,1,3.613,5.947,6.638,6.638,0,0,1-.963,3.553,6.51,6.51,0,0,1-2.649,2.424,8.112,8.112,0,0,1-3.734.858H474.83v7.919h-4.064Z" transform="translate(-96.479 0)" fill="#00a894"/><path d="M398.7,277.467a2.884,2.884,0,0,1-2.794-2.168l.905-.369a2.335,2.335,0,0,0,.7,1.173,1.756,1.756,0,0,0,1.207.458,1.852,1.852,0,0,0,1.173-.374,1.227,1.227,0,0,0,.48-1.023,1.18,1.18,0,0,0-.408-.922,3.969,3.969,0,0,0-1.335-.676l-.5-.179a4.011,4.011,0,0,1-1.386-.793,1.757,1.757,0,0,1-.536-1.364,1.912,1.912,0,0,1,.313-1.056,2.243,2.243,0,0,1,.872-.777,2.9,2.9,0,0,1,2.459-.034,2.512,2.512,0,0,1,.822.626,2.333,2.333,0,0,1,.43.726l-.894.38a1.5,1.5,0,0,0-.508-.749,1.567,1.567,0,0,0-1.046-.335,1.635,1.635,0,0,0-1.05.346,1.069,1.069,0,0,0-.436.872.937.937,0,0,0,.369.766,3.765,3.765,0,0,0,1.117.553l.525.179a4.4,4.4,0,0,1,1.587.922,2,2,0,0,1,.57,1.5,2.09,2.09,0,0,1-.4,1.3,2.336,2.336,0,0,1-1,.771,3.249,3.249,0,0,1-1.24.246m-9.033-7.276H387.42v-.905h5.432v.905h-2.235v7.1h-.95Zm-12.084-.905h1.162l4.013,6.37h.044l-.044-1.542v-4.828h.949v8h-.984l-4.2-6.673h-.045l.045,1.542v5.131h-.939Zm-8.686,0h4.627v.905h-3.688v2.649h3.331v.894h-3.331v2.649h3.688v.906H368.9Zm-12.207,0h1.374l2.548,6.561h.045l2.548-6.561h1.374v8h-.939V272.2l.045-1.52h-.045l-2.615,6.606h-.783l-2.615-6.606h-.044l.044,1.52v5.086h-.938Zm-6.91.905h-2.246v-.905h5.431v.905h-2.235v7.1h-.95Zm-8.094,7.276a2.884,2.884,0,0,1-2.794-2.168l.905-.369a2.335,2.335,0,0,0,.7,1.173,1.755,1.755,0,0,0,1.207.458,1.851,1.851,0,0,0,1.173-.374,1.226,1.226,0,0,0,.481-1.023,1.18,1.18,0,0,0-.408-.922,3.967,3.967,0,0,0-1.336-.676l-.5-.179a4.007,4.007,0,0,1-1.386-.793,1.757,1.757,0,0,1-.536-1.364,1.912,1.912,0,0,1,.313-1.056,2.238,2.238,0,0,1,.872-.777,2.9,2.9,0,0,1,2.459-.034,2.518,2.518,0,0,1,.822.626,2.344,2.344,0,0,1,.43.726l-.894.38a1.5,1.5,0,0,0-.509-.749,1.566,1.566,0,0,0-1.045-.335,1.634,1.634,0,0,0-1.05.346,1.068,1.068,0,0,0-.436.872.937.937,0,0,0,.369.766,3.765,3.765,0,0,0,1.117.553l.525.179a4.406,4.406,0,0,1,1.587.922,2,2,0,0,1,.57,1.5,2.09,2.09,0,0,1-.4,1.3,2.336,2.336,0,0,1-1,.771A3.252,3.252,0,0,1,341.685,277.467Zm-10.922-8.181h4.627v.905H331.7v2.649h3.33v.894H331.7v2.649h3.688v.906h-4.627Zm-10.307,0h1.051l1.978,5.8.268.794h.045l.279-.794,2.068-5.8h1.05l-2.929,8h-.984Zm-9.536,0h1.162l4.013,6.37h.044l-.044-1.542v-4.828h.95v8h-.984l-4.2-6.673h-.045l.045,1.542v5.131h-.939Zm-5.255,0h.939v8h-.939Z" transform="translate(-31.862 -18.661)" fill="#006799"/></g></svg>