<?xml version="1.0" encoding="utf-8"?>
<!-- Generator: Adobe Illustrator 26.0.2, SVG Export Plug-In . SVG Version: 6.00 Build 0)  -->
<svg version="1.1" id="Слой_1" xmlns="http://www.w3.org/2000/svg" xmlns:xlink="http://www.w3.org/1999/xlink" x="0px" y="0px"
	 viewBox="0 0 450 97.458" style="enable-background:new 0 0 450 97.458;" xml:space="preserve">
<style type="text/css">
	.st0{fill:#153557;}
	.st1{fill:#22B3B3;}
</style>
<g>
	<g>
		<polygon class="st0" points="47.536,80.886 50.962,84.311 50.962,97.458 60.288,97.458 60.288,80.447 54.131,74.291 		"/>
		<polygon class="st0" points="13.186,33.349 39.939,6.593 33.348,0 0,33.349 40.94,74.293 47.537,67.696 		"/>
		<polygon class="st1" points="95.074,33.349 61.724,0 55.127,6.593 81.883,33.349 47.537,67.696 40.94,74.293 34.785,80.447 
			34.785,97.457 44.111,97.457 44.111,84.31 47.536,80.886 54.131,74.291 		"/>
		<polygon class="st1" points="25.995,33.35 47.535,33.35 47.535,54.888 69.075,33.349 47.535,33.349 47.535,11.809 		"/>
	</g>
	<path class="st0" d="M446.289,29.282c1.189,0.558,2.105,1.348,2.746,2.368c0.644,1.023,0.965,2.227,0.965,3.615v0.252
		c0,1.369-0.32,2.568-0.965,3.599c-0.641,1.032-1.562,1.822-2.762,2.369c-1.199,0.547-2.588,0.82-4.167,0.82
		c-1.599,0-2.995-0.273-4.183-0.82c-1.189-0.547-2.11-1.337-2.762-2.369c-0.652-1.031-0.977-2.23-0.977-3.599v-0.252
		c0-1.369,0.325-2.568,0.977-3.601c0.652-1.029,1.579-1.824,2.779-2.382c1.199-0.558,2.588-0.837,4.167-0.837
		C443.705,28.445,445.102,28.723,446.289,29.282 M447.348,35.169c0-1.452-0.448-2.557-1.343-3.314
		c-0.895-0.757-2.193-1.138-3.898-1.138c-1.706,0-3.015,0.385-3.931,1.152c-0.916,0.77-1.372,1.869-1.372,3.3v0.411
		c0,1.432,0.456,2.531,1.372,3.298c0.916,0.77,2.225,1.154,3.931,1.154c1.685,0,2.979-0.384,3.884-1.154
		c0.905-0.767,1.358-1.866,1.358-3.298V35.169z M445.233,32.771c0.463,0.4,0.694,0.958,0.694,1.672v0.159
		c0,0.485-0.105,0.901-0.316,1.248c-0.21,0.346-0.516,0.605-0.916,0.774l1.201,1.706v0.22h-2.78l-1.105-1.673h-0.914v1.673h-2.62
		V32.17h4.861C444.137,32.17,444.77,32.371,445.233,32.771 M441.096,35.201h1.484c0.21,0,0.379-0.047,0.505-0.142
		c0.126-0.094,0.189-0.236,0.189-0.427v-0.126c0-0.167-0.063-0.298-0.189-0.393c-0.126-0.094-0.294-0.142-0.505-0.142h-1.484V35.201
		z"/>
	<g>
		<path class="st0" d="M173.568,70.225h-9.49V41.439l-13.502,28.786h-9.617l-13.502-28.916v28.916h-9.49v-41.78h13.183L145.8,59.46
			l14.585-31.015h13.183V70.225z"/>
		<path class="st0" d="M183.504,33.063c-1.063-0.995-1.591-2.301-1.591-3.918c0-1.612,0.529-2.918,1.591-3.913
			c1.06-1,2.441-1.498,4.139-1.498c1.741,0,3.131,0.498,4.172,1.498c1.039,0.995,1.56,2.301,1.56,3.913
			c0,1.617-0.531,2.923-1.591,3.918c-1.062,1-2.444,1.498-4.141,1.498S184.563,34.063,183.504,33.063z M192.229,38.319v31.906
			h-9.171V38.319H192.229z"/>
		<path class="st0" d="M208.275,69.048c-2.928-1.296-5.18-3.167-6.751-5.608c-1.57-2.441-2.356-5.318-2.356-8.63v-0.824
			c0-3.4,0.775-6.328,2.325-8.79c1.55-2.462,3.789-4.354,6.72-5.67c2.928-1.316,6.409-1.975,10.444-1.975
			c3.991,0,7.43,0.658,10.317,1.975c2.887,1.316,5.105,3.208,6.658,5.67c1.55,2.462,2.325,5.39,2.325,8.79v0.824
			c0,3.312-0.775,6.188-2.325,8.63c-1.552,2.441-3.771,4.312-6.658,5.608c-2.887,1.291-6.326,1.938-10.317,1.938
			C214.666,70.987,211.206,70.339,208.275,69.048z M225.822,60.543c1.718-1.358,2.579-3.291,2.579-5.795v-0.7
			c0-2.591-0.85-4.587-2.547-5.986c-1.697-1.405-4.118-2.104-7.259-2.104c-3.185,0-5.629,0.695-7.326,2.073
			s-2.547,3.384-2.547,6.017v0.7c0,2.503,0.86,4.437,2.581,5.795c1.718,1.358,4.149,2.037,7.292,2.037
			C221.692,62.58,224.102,61.901,225.822,60.543z"/>
		<path class="st0" d="M280.373,28.445v1.467L262.03,53.987v16.238h-9.617V53.987l-18.407-24.075v-1.467h10.381l12.802,16.876
			l12.802-16.876H280.373z"/>
		<path class="st0" d="M314.319,56.977h-28.405c0.295,1.995,1.272,3.524,2.928,4.587c1.656,1.063,3.885,1.591,6.689,1.591
			c2.547,0,4.626-0.337,6.24-1.021c1.614-0.679,2.547-1.612,2.801-2.799h9.682c-0.466,3.737-2.325,6.613-5.572,8.63
			c-3.25,2.016-7.634,3.022-13.152,3.022c-3.908,0-7.303-0.648-10.19-1.938c-2.889-1.296-5.097-3.156-6.624-5.577
			c-1.529-2.415-2.293-5.261-2.293-8.531v-1.213c0-3.312,0.775-6.183,2.325-8.63c1.55-2.441,3.758-4.307,6.624-5.603
			s6.251-1.944,10.159-1.944c5.942,0,10.56,1.415,13.851,4.234c3.289,2.825,4.937,6.784,4.937,11.879V56.977z M289.352,46.596
			c-1.614,0.891-2.674,2.146-3.185,3.758h18.405c-0.508-1.612-1.55-2.866-3.12-3.758s-3.566-1.337-5.986-1.337
			C293.004,45.259,290.964,45.704,289.352,46.596z"/>
		<path class="st0" d="M324.985,68.157c-3.335-1.892-5.002-4.577-5.002-8.059v-0.316h8.852v0.316c0,1.192,0.806,2.052,2.42,2.581
			c1.615,0.529,4.224,0.793,7.834,0.793c5.945,0,8.917-0.845,8.917-2.545v-0.316c0-0.638-0.384-1.125-1.148-1.467
			c-0.762-0.342-2.143-0.596-4.139-0.767l-8.215-0.824c-4.714-0.466-8.153-1.446-10.319-2.934c-2.164-1.482-3.247-3.587-3.247-6.302
			v-0.638c0-3.182,1.581-5.67,4.745-7.453c3.162-1.783,7.567-2.674,13.214-2.674c5.859,0,10.361,0.938,13.504,2.804
			c3.141,1.871,4.711,4.566,4.711,8.091v0.378h-8.852v-0.378c0-1.192-0.754-2.052-2.26-2.581c-1.508-0.529-3.96-0.798-7.357-0.798
			c-2.76,0-4.882,0.192-6.367,0.575c-1.488,0.384-2.231,0.933-2.231,1.653v0.384c0,0.638,0.352,1.125,1.052,1.467
			c0.7,0.337,1.855,0.591,3.47,0.762l8.345,0.829c5.009,0.508,8.65,1.508,10.923,2.991c2.27,1.488,3.405,3.633,3.405,6.432v0.638
			c0,3.229-1.615,5.732-4.838,7.515c-3.229,1.783-7.707,2.674-13.439,2.674C332.977,70.987,328.318,70.044,324.985,68.157z"/>
		<path class="st0" d="M390.063,28.445v16.622h23.119V28.445h9.555v41.78h-9.555V53.603h-23.119v16.622h-9.552v-41.78H390.063z"/>
	</g>
</g>
</svg>
