<svg xmlns="http://www.w3.org/2000/svg" width="330.072" height="84.487" viewBox="0 0 330.072 84.487">
  <g id="Сгруппировать_231" data-name="Сгруппировать 231" transform="translate(-390.4 -2700.84)">
    <g id="Сгруппировать_230" data-name="Сгруппировать 230" transform="translate(-351.218 -56.077)">
      <g id="Сгруппировать_4" data-name="Сгруппировать 4" transform="translate(741.618 2756.917)">
        <g id="Сгруппировать_3" data-name="Сгруппировать 3" transform="translate(0 0)">
          <g id="Сгруппировать_2" data-name="Сгруппировать 2" transform="translate(0 0)">
            <g id="Сгруппировать_1" data-name="Сгруппировать 1" transform="translate(0 0)">
              <path id="Контур_1" data-name="Контур 1" d="M231.844,461.049l2.97,2.969v11.4H242.9V460.668l-5.338-5.337Z" transform="translate(-190.635 -390.928)" fill="#153558"/>
              <path id="Контур_2" data-name="Контур 2" d="M227.067,458.913l23.192-23.2L244.546,430l-28.909,28.911,35.491,35.494,5.719-5.719Z" transform="translate(-215.637 -430.002)" fill="#153558"/>
              <path id="Контур_3" data-name="Контур 3" d="M279.761,458.913,250.85,430l-5.72,5.715,23.2,23.2-29.775,29.775-5.719,5.719-5.336,5.336v14.746h8.085v-11.4l2.969-2.969,5.717-5.717Z" transform="translate(-197.341 -430.002)" fill="#25b5b5"/>
              <path id="Контур_4" data-name="Контур 4" d="M224.5,452.7h18.672v18.671L261.846,452.7H243.172V434.029Z" transform="translate(-201.964 -423.791)" fill="#25b5b5"/>
            </g>
            <path id="Контур_5" data-name="Контур 5" d="M350.554,438.821a5.467,5.467,0,0,1,2.38,2.052,5.745,5.745,0,0,1,.836,3.133v.221a5.761,5.761,0,0,1-.836,3.12,5.313,5.313,0,0,1-2.4,2.052,9.556,9.556,0,0,1-7.239,0,5.449,5.449,0,0,1-2.4-2.052,5.723,5.723,0,0,1-.847-3.12v-.221a5.724,5.724,0,0,1,.847-3.12,5.542,5.542,0,0,1,2.41-2.065,9.37,9.37,0,0,1,7.239,0m.918,5.1a3.554,3.554,0,0,0-1.164-2.873,5.1,5.1,0,0,0-3.379-.987,5.169,5.169,0,0,0-3.41,1,3.529,3.529,0,0,0-1.19,2.86v.356a3.526,3.526,0,0,0,1.19,2.86,5.169,5.169,0,0,0,3.41,1,5.062,5.062,0,0,0,3.367-1,3.55,3.55,0,0,0,1.177-2.86Zm-1.836-2.08a1.817,1.817,0,0,1,.6,1.449v.137a2.063,2.063,0,0,1-.272,1.083,1.642,1.642,0,0,1-.8.669l1.042,1.48v.191H347.8l-.959-1.452h-.793v1.452H343.78v-5.528h4.213a2.428,2.428,0,0,1,1.643.519m-3.585,2.108h1.287a.7.7,0,0,0,.437-.125.43.43,0,0,0,.165-.369v-.109a.4.4,0,0,0-.165-.341.714.714,0,0,0-.437-.125h-1.287Z" transform="translate(-23.698 -417.52)" fill="#153558"/>
            <path id="Контур_6" data-name="Контур 6" d="M304.053,475.916h-8.226V450.962l-11.7,24.953h-8.334l-11.7-25.063v25.063h-8.227V439.7h11.428l12.7,26.885L292.626,439.7h11.428Z" transform="translate(-153.59 -415.04)" fill="#153558"/>
            <path id="Контур_7" data-name="Контур 7" d="M279.037,446.182a4.863,4.863,0,0,1,0-6.789,5.645,5.645,0,0,1,7.206,0,4.9,4.9,0,0,1-.028,6.789,5.615,5.615,0,0,1-7.178,0m7.564,32.213H278.65V450.739H286.6Z" transform="translate(-119.963 -417.52)" fill="#153558"/>
            <path id="Контур_8" data-name="Контур 8" d="M291.435,470.106a12.972,12.972,0,0,1-5.851-4.859,13.51,13.51,0,0,1-2.044-7.48v-.717a13.987,13.987,0,0,1,2.016-7.618,12.916,12.916,0,0,1,5.825-4.915,21.973,21.973,0,0,1,9.052-1.711,21.461,21.461,0,0,1,8.945,1.711,12.967,12.967,0,0,1,5.769,4.915,14.008,14.008,0,0,1,2.014,7.618v.717a13.665,13.665,0,0,1-2.014,7.48,12.858,12.858,0,0,1-5.769,4.859,21.757,21.757,0,0,1-8.945,1.683,22.139,22.139,0,0,1-9-1.683m15.21-7.371a6.03,6.03,0,0,0,2.237-5.024V457.1a6.359,6.359,0,0,0-2.21-5.19,9.657,9.657,0,0,0-6.3-1.821,9.835,9.835,0,0,0-6.346,1.8,6.32,6.32,0,0,0-2.21,5.215v.608a6.028,6.028,0,0,0,2.235,5.024,9.99,9.99,0,0,0,6.321,1.767,9.884,9.884,0,0,0,6.268-1.767" transform="translate(-110.886 -410.251)" fill="#153558"/>
            <path id="Контур_9" data-name="Контур 9" d="M333.86,443.067v1.157l-14.628,29.261a12.07,12.07,0,0,1-4.363,5.05,13.325,13.325,0,0,1-6.954,1.574h-7.231V473.1h6.842a6.221,6.221,0,0,0,2.347-.359,3.2,3.2,0,0,0,1.462-1.353L297.48,444.224v-1.157h8.5L315.754,463l9.606-19.929Z" transform="translate(-89.381 -409.848)" fill="#153558"/>
            <path id="Контур_10" data-name="Контур 10" d="M345.353,459.644H320.73a5.456,5.456,0,0,0,2.54,3.977A10.65,10.65,0,0,0,329.065,465a14.061,14.061,0,0,0,5.411-.882,3.6,3.6,0,0,0,2.428-2.428H345.3a9.854,9.854,0,0,1-4.831,7.481q-4.222,2.62-11.4,2.621a21.432,21.432,0,0,1-8.831-1.683,12.745,12.745,0,0,1-5.741-4.831,13.542,13.542,0,0,1-1.988-7.4v-1.048a13.664,13.664,0,0,1,2.014-7.481,12.9,12.9,0,0,1,5.744-4.859,21.238,21.238,0,0,1,8.8-1.683q7.731,0,12.009,3.672t4.279,10.3Zm-21.643-9a5.566,5.566,0,0,0-2.759,3.257H336.9a5.6,5.6,0,0,0-2.7-3.257,10.417,10.417,0,0,0-5.19-1.159,10.873,10.873,0,0,0-5.3,1.159" transform="translate(-66.203 -410.251)" fill="#153558"/>
            <path id="Контур_11" data-name="Контур 11" d="M331.689,469.334a7.667,7.667,0,0,1-4.333-6.985v-.275h7.674v.275q0,1.549,2.1,2.235a23.826,23.826,0,0,0,6.791.692q7.727,0,7.73-2.21v-.275a1.394,1.394,0,0,0-.994-1.269,12.612,12.612,0,0,0-3.59-.664l-7.119-.72q-6.129-.606-8.945-2.538a6.243,6.243,0,0,1-2.815-5.467v-.552q0-4.142,4.111-6.458t11.457-2.319q7.617,0,11.7,2.428a7.717,7.717,0,0,1,4.089,7.013v.331H351.87v-.331q0-1.545-1.963-2.235a20.907,20.907,0,0,0-6.374-.692,23.36,23.36,0,0,0-5.523.5c-1.289.331-1.93.809-1.93,1.434v.331a1.382,1.382,0,0,0,.91,1.271,9.878,9.878,0,0,0,3.008.664l7.231.714q6.514.664,9.469,2.6a6.264,6.264,0,0,1,2.955,5.576v.552q0,4.2-4.2,6.514t-11.648,2.319q-7.784,0-12.118-2.456" transform="translate(-43.293 -410.251)" fill="#153558"/>
          </g>
        </g>
      </g>
    </g>
  </g>
</svg>
