<svg xmlns="http://www.w3.org/2000/svg" xmlns:xlink="http://www.w3.org/1999/xlink" width="1131.3" height="483" viewBox="0 0 1131.3 483"><defs><linearGradient id="a" x1="2.162" y1="-0.848" x2="0" y2="1" gradientUnits="objectBoundingBox"><stop offset="0" stop-color="#ddd"/><stop offset="1" stop-color="#6f6f6f" stop-opacity="0"/></linearGradient><linearGradient id="b" x1="1.221" y1="-0.202" x2="0" y2="1.121" gradientUnits="objectBoundingBox"><stop offset="0" stop-color="#1d3564"/><stop offset="1" stop-color="#135b5b" stop-opacity="0"/></linearGradient></defs><g transform="translate(-389 -3212)"><text transform="translate(443 3238)" fill="#2b2b2b" font-size="26" font-family="PTSans-Regular, PT Sans"><tspan x="0" y="0">Control Group</tspan></text><text transform="translate(731 3238)" fill="#2b2b2b" font-size="26" font-family="PTSans-Regular, PT Sans"><tspan x="0" y="0">Injected with Miosta</tspan></text><text transform="translate(389 3302)" fill="#2b2b2b" font-size="20" font-family="PTSans-Regular, PT Sans"><tspan x="0" y="0">1500</tspan></text><text transform="translate(389 3416)" fill="#2b2b2b" font-size="20" font-family="PTSans-Regular, PT Sans"><tspan x="0" y="0">1000</tspan></text><text transform="translate(389 3533)" fill="#2b2b2b" font-size="20" font-family="PTSans-Regular, PT Sans"><tspan x="0" y="0">500</tspan></text><text transform="translate(389 3648)" fill="#2b2b2b" font-size="20" font-family="PTSans-Regular, PT Sans"><tspan x="0" y="0">0</tspan></text><path d="M-473,8610H589.7" transform="translate(930.6 -5317.5)" fill="none" stroke="#e3e3e3" stroke-width="1"/><path d="M-473,8610H589.7" transform="translate(930.6 -5201.5)" fill="none" stroke="#e3e3e3" stroke-width="1"/><path d="M-473,8610H589.7" transform="translate(930.6 -5084.5)" fill="none" stroke="#e3e3e3" stroke-width="1"/><path d="M-473,8610H589.7" transform="translate(930.6 -4967.5)" fill="none" stroke="#e3e3e3" stroke-width="1"/><rect width="33" height="33" transform="translate(389 3212)" fill="url(#a)"/><rect width="33" height="33" transform="translate(677 3212)" fill="url(#b)"/><text transform="translate(498 3689)" fill="#2b2b2b" font-size="20" font-family="PTSans-Regular, PT Sans"><tspan x="0" y="0">Before injection</tspan></text><text transform="translate(802 3689)" fill="#2b2b2b" font-size="20" font-family="PTSans-Regular, PT Sans"><tspan x="0" y="0">2 mo. after</tspan></text><text transform="translate(1085 3689)" fill="#2b2b2b" font-size="20" font-family="PTSans-Regular, PT Sans"><tspan x="0" y="0">4 mo. after</tspan></text><text transform="translate(1375 3689)" fill="#2b2b2b" font-size="20" font-family="PTSans-Regular, PT Sans"><tspan x="0" y="0">6 mo. after</tspan></text></g></svg>