<svg xmlns="http://www.w3.org/2000/svg" xmlns:xlink="http://www.w3.org/1999/xlink" width="1062" height="342" viewBox="0 0 1062 342"><defs><linearGradient id="a" x1="1" x2="0" y2="1" gradientUnits="objectBoundingBox"><stop offset="0" stop-color="#c6c6c6"/><stop offset="0.555" stop-color="#929292" stop-opacity="0.251"/><stop offset="1" stop-color="#636363" stop-opacity="0"/></linearGradient><linearGradient id="b" x1="1" x2="0" y2="1" gradientUnits="objectBoundingBox"><stop offset="0" stop-color="#1d3564" stop-opacity="0.82"/><stop offset="0.5" stop-color="#0d2952" stop-opacity="0.239"/><stop offset="1" stop-color="#135b5b" stop-opacity="0"/></linearGradient></defs><g transform="translate(-458 -3300)"><rect width="107" height="94" transform="translate(740 3548)" opacity="0.67" fill="url(#a)"/><rect width="108" height="102" transform="translate(847 3540)" opacity="0.67" fill="url(#b)"/><rect width="107" height="68" transform="translate(458 3574)" opacity="0.67" fill="url(#a)"/><rect width="108" height="70" transform="translate(565 3572)" opacity="0.67" fill="url(#b)"/><rect width="107" height="160" transform="translate(1023 3482)" opacity="0.67" fill="url(#a)"/><rect width="108" height="192" transform="translate(1130 3450)" opacity="0.67" fill="url(#b)"/><rect width="107" height="237" transform="translate(1305 3405)" opacity="0.67" fill="url(#a)"/><rect width="108" height="301" transform="translate(1412 3341)" opacity="0.67" fill="url(#b)"/><text transform="translate(512 3560)" fill="#2b2b2b" font-size="26" font-family="PTSans-Regular, PT Sans"><tspan x="-22.36" y="0">27,6</tspan></text><text transform="translate(794 3528)" fill="#2b2b2b" font-size="26" font-family="PTSans-Regular, PT Sans"><tspan x="-22.36" y="0">37,3</tspan></text><text transform="translate(1077 3466)" fill="#2b2b2b" font-size="26" font-family="PTSans-Regular, PT Sans"><tspan x="-22.36" y="0">67,1</tspan></text><text transform="translate(1359 3392)" fill="#2b2b2b" font-size="26" font-family="PTSans-Regular, PT Sans"><tspan x="-30.875" y="0">100,1</tspan></text><text transform="translate(619 3560)" fill="#2b2b2b" font-size="26" font-family="PTSans-Bold, PT Sans" font-weight="700"><tspan x="-23.53" y="0">27,4</tspan></text><text transform="translate(901 3523)" fill="#2b2b2b" font-size="26" font-family="PTSans-Bold, PT Sans" font-weight="700"><tspan x="-25.077" y="0">42,1</tspan></text><g transform="translate(0 -359)"><text transform="translate(794 3960)" fill="#2b2b2b" font-size="26" font-family="PTSans-Regular, PT Sans"><tspan x="-37.44" y="0">+14,57</tspan></text><text transform="translate(902 3960)" fill="#2b2b2b" font-size="26" font-family="PTSans-Bold, PT Sans" font-weight="700"><tspan x="-39.299" y="0">+20,07</tspan></text></g><g transform="translate(0 -392)"><text transform="translate(1075 3960)" fill="#2b2b2b" font-size="26" font-family="PTSans-Regular, PT Sans"><tspan x="-37.44" y="0">+18,53</tspan></text><text transform="translate(1183 3960)" fill="#2b2b2b" font-size="26" font-family="PTSans-Bold, PT Sans" font-weight="700"><tspan x="-39.299" y="0">+20,13</tspan></text></g><g transform="translate(0 -452)"><text transform="translate(1357 3960)" fill="#2b2b2b" font-size="26" font-family="PTSans-Regular, PT Sans"><tspan x="-37.44" y="0">+14,97</tspan></text><text transform="translate(1465 3960)" fill="#2b2b2b" font-size="26" font-family="PTSans-Bold, PT Sans" font-weight="700"><tspan x="-39.299" y="0">+22,77</tspan></text></g><text transform="translate(1184 3433)" fill="#2b2b2b" font-size="26" font-family="PTSans-Bold, PT Sans" font-weight="700"><tspan x="-25.077" y="0">82,4</tspan></text><text transform="translate(1466 3323)" fill="#2b2b2b" font-size="26" font-family="PTSans-Bold, PT Sans" font-weight="700"><tspan x="-32.448" y="0">129,8</tspan></text></g></svg>