<?xml version="1.0" standalone="no"?>
<!DOCTYPE svg PUBLIC "-//W3C//DTD SVG 20010904//EN"
 "http://www.w3.org/TR/2001/REC-SVG-20010904/DTD/svg10.dtd">
<svg version="1.0" xmlns="http://www.w3.org/2000/svg"
 width="672.000000pt" height="672.000000pt" viewBox="0 0 672.000000 672.000000"
 preserveAspectRatio="xMidYMid meet">
<metadata>
Created by potrace 1.14, written by Peter Selinger 2001-2017
</metadata>
<g transform="translate(0.000000,672.000000) scale(0.100000,-0.100000)"
fill="#000000" stroke="none">
<path d="M1237 5570 l-1147 -1149 1410 -1412 1410 -1412 -212 -213 -212 -212
-1 -574 c0 -315 1 -579 3 -585 3 -10 77 -13 323 -13 l319 0 0 453 0 454 117
116 117 117 29 -28 c17 -15 70 -67 118 -116 86 -87 98 -109 90 -159 -2 -12 -2
-28 0 -445 l1 -392 322 0 321 0 0 586 -1 586 -212 212 -213 212 1411 1412
1410 1412 -1148 1150 -1149 1150 -226 -226 c-125 -125 -226 -228 -225 -230 2
-2 416 -417 922 -923 l918 -920 -1187 -1188 c-931 -933 -1188 -1185 -1195
-1172 -5 8 -536 543 -1180 1188 l-1172 1172 919 920 c505 506 919 921 921 923
2 3 -448 457 -452 456 0 -1 -517 -518 -1149 -1150z"/>
<path d="M2624 5164 c-516 -517 -732 -739 -723 -745 7 -4 16 -6 20 -4 3 3 154
4 335 4 181 0 336 0 344 0 35 0 157 1 185 1 17 1 154 2 305 3 l275 2 0 737 c0
406 -1 738 -3 738 -2 0 -334 -331 -738 -736z"/>
<path d="M3460 4420 l-95 -5 0 -737 c0 -636 2 -735 14 -725 40 33 1461 1460
1458 1464 -7 6 -1264 9 -1377 3z"/>
</g>
</svg>
