<svg xmlns="http://www.w3.org/2000/svg" xmlns:xlink="http://www.w3.org/1999/xlink" width="1329" height="484" viewBox="0 0 1329 484"><defs><linearGradient id="a" x1="2.162" y1="-0.848" x2="0" y2="1" gradientUnits="objectBoundingBox"><stop offset="0" stop-color="#ddd"/><stop offset="1" stop-color="#6f6f6f" stop-opacity="0"/></linearGradient><linearGradient id="b" x1="1" y1="-0.252" x2="0" y2="1.538" gradientUnits="objectBoundingBox"><stop offset="0" stop-color="#949292"/><stop offset="0.472" stop-color="#949292" stop-opacity="0.529"/><stop offset="1" stop-color="#a4a8b8" stop-opacity="0"/></linearGradient><linearGradient id="c" x1="1" x2="0" y2="1" gradientUnits="objectBoundingBox"><stop offset="0" stop-color="#1d3564"/><stop offset="0.733" stop-color="#1d3564" stop-opacity="0.239"/><stop offset="1" stop-color="#247dcb" stop-opacity="0"/></linearGradient></defs><g transform="translate(-289 -3500)"><text transform="translate(343 3528)" fill="#2b2b2b" font-size="26" font-family="PTSans-Regular, PT Sans, Helvetica"><tspan x="0" y="0">Контрольная группа</tspan></text><text transform="translate(682 3528)" fill="#2b2b2b" font-size="26" font-family="PTSans-Regular, PT Sans, Helvetica"><tspan x="0" y="0">Получившая инъекции Miosta H</tspan></text><text transform="translate(1178 3528)" fill="#2b2b2b" font-size="26" font-family="PTSans-Regular, PT Sans, Helvetica"><tspan x="0" y="0">Получившая инъекции Дюфалайт</tspan></text><path d="M-473,8610H787.4" transform="translate(830.6 -4677.5)" fill="none" stroke="#e3e3e3" stroke-width="1"/><rect width="33" height="33" transform="translate(289 3502)" fill="url(#a)"/><rect width="33" height="33" transform="translate(1124 3502)" fill="url(#b)"/><text transform="translate(424 3979)" fill="#2b2b2b" font-size="20" font-family="PTSans-Regular, PT Sans, Helvetica"><tspan x="0" y="0">До инъекции</tspan></text><text transform="translate(744 3979)" fill="#2b2b2b" font-size="20" font-family="PTSans-Regular, PT Sans, Helvetica"><tspan x="0" y="0">2 мес. спустя</tspan></text><text transform="translate(1059 3979)" fill="#2b2b2b" font-size="20" font-family="PTSans-Regular, PT Sans, Helvetica"><tspan x="0" y="0">4 мес. спустя</tspan></text><text transform="translate(1374 3979)" fill="#2b2b2b" font-size="20" font-family="PTSans-Regular, PT Sans, Helvetica"><tspan x="0" y="0">6 мес. спустя</tspan></text><path d="M-473,8610H787.4" transform="translate(830.6 -4911.5)" fill="none" stroke="#e3e3e3" stroke-width="1" opacity="0.5"/><path d="M-473,8610H787.4" transform="translate(830.6 -4794.5)" fill="none" stroke="#e3e3e3" stroke-width="1" opacity="0.5"/><text transform="translate(289 3592)" fill="#2b2b2b" font-size="20" font-family="PTSans-Regular, PT Sans, Helvetica"><tspan x="0" y="0">1500</tspan></text><text transform="translate(289 3706)" fill="#2b2b2b" font-size="20" font-family="PTSans-Regular, PT Sans, Helvetica"><tspan x="0" y="0">1000</tspan></text><text transform="translate(289 3823)" fill="#2b2b2b" font-size="20" font-family="PTSans-Regular, PT Sans, Helvetica"><tspan x="0" y="0">500</tspan></text><text transform="translate(289 3938)" fill="#2b2b2b" font-size="20" font-family="PTSans-Regular, PT Sans, Helvetica"><tspan x="0" y="0">0</tspan></text><path d="M-473,8610H787.4" transform="translate(830.6 -5027.5)" fill="none" stroke="#e3e3e3" stroke-width="1"/><rect width="33" height="33" transform="translate(636 3502)" fill="url(#c)"/></g></svg>
