<svg xmlns="http://www.w3.org/2000/svg" width="1329" height="494" viewBox="0 0 1329 494"><g transform="translate(-300 -4846)"><text transform="translate(354 4874)" fill="#2b2b2b" font-size="26" font-family="SegoeUI, Segoe UI"><tspan x="0" y="0">Контрольная группа</tspan></text><text transform="translate(732 4874)" fill="#2b2b2b" font-size="26" font-family="SegoeUI, Segoe UI"><tspan x="0" y="0">Опытная группа</tspan></text><rect width="33" height="33" transform="translate(300 4848)" fill="#ddd"/><rect width="33" height="33" transform="translate(678 4848)" fill="#1d3564"/><text transform="translate(300 4948)" fill="#2b2b2b" font-size="20" font-family="SegoeUI, Segoe UI"><tspan x="0" y="0">20</tspan></text><text transform="translate(300 5035)" fill="#2b2b2b" font-size="20" font-family="SegoeUI, Segoe UI"><tspan x="0" y="0">15</tspan></text><text transform="translate(300 5121)" fill="#2b2b2b" font-size="20" font-family="SegoeUI, Segoe UI"><tspan x="0" y="0">10</tspan></text><text transform="translate(300 5208)" fill="#2b2b2b" font-size="20" font-family="SegoeUI, Segoe UI"><tspan x="0" y="0">5</tspan></text><text transform="translate(300 5294)" fill="#2b2b2b" font-size="20" font-family="SegoeUI, Segoe UI"><tspan x="0" y="0">0</tspan></text><path d="M-473,8610H787.4" transform="translate(841.6 -3671.5)" fill="none" stroke="#e3e3e3" stroke-width="1"/><path d="M-473,8610H787.4" transform="translate(841.6 -3584.5)" fill="none" stroke="#e3e3e3" stroke-width="1"/><path d="M-473,8610H787.4" transform="translate(841.6 -3496.5)" fill="none" stroke="#e3e3e3" stroke-width="1"/><path d="M-473,8610H787.4" transform="translate(841.6 -3409.5)" fill="none" stroke="#e3e3e3" stroke-width="1"/><path d="M-473,8610H787.4" transform="translate(841.6 -3321.5)" fill="none" stroke="#e3e3e3" stroke-width="1"/><text transform="translate(457 5335)" fill="#2b2b2b" font-size="20" font-family="SegoeUI, Segoe UI"><tspan x="0" y="0">Май</tspan></text><text transform="translate(703 5335)" fill="#2b2b2b" font-size="20" font-family="SegoeUI, Segoe UI"><tspan x="0" y="0">Июнь</tspan></text><text transform="translate(944 5335)" fill="#2b2b2b" font-size="20" font-family="SegoeUI, Segoe UI"><tspan x="0" y="0">Июль</tspan></text><text transform="translate(1229 5335)" fill="#2b2b2b" font-size="20" font-family="SegoeUI, Segoe UI"><tspan x="0" y="0">Август</tspan></text><text transform="translate(1494 5335)" fill="#2b2b2b" font-size="20" font-family="SegoeUI, Segoe UI"><tspan x="0" y="0">Сентябрь</tspan></text><path d="M-297.267,9770.207l253.906-7.23,240.684-34.459s213.643,25.715,287.213,36.279c.144.021,284.389,30.129,284.679,30.17" transform="translate(773 -4771)" fill="none" stroke="#ddd" stroke-width="5"/><g transform="translate(965 4952)" fill="#ddd" stroke="#ddd" stroke-width="1"><circle cx="5" cy="5" r="5" stroke="none"/><circle cx="5" cy="5" r="4.5" fill="none"/></g><g transform="translate(724 4987)" fill="#ddd" stroke="#ddd" stroke-width="1"><circle cx="5" cy="5" r="5" stroke="none"/><circle cx="5" cy="5" r="4.5" fill="none"/></g><g transform="translate(471 4995)" fill="#ddd" stroke="#ddd" stroke-width="1"><circle cx="5" cy="5" r="5" stroke="none"/><circle cx="5" cy="5" r="4.5" fill="none"/></g><g transform="translate(1253 4989)" fill="#ddd" stroke="#ddd" stroke-width="1"><circle cx="5" cy="5" r="5" stroke="none"/><circle cx="5" cy="5" r="4.5" fill="none"/></g><g transform="translate(1532 5018)" fill="#ddd" stroke="#ddd" stroke-width="1"><circle cx="5" cy="5" r="5" stroke="none"/><circle cx="5" cy="5" r="4.5" fill="none"/></g><g transform="translate(-43 -207.5)"><path d="M-257.4,9963.721l252.523-35.246,241.228-8.527L524.4,9950.419,800.729,9973.4" transform="translate(777 -4768.782)" fill="none" stroke="#1d3564" stroke-width="5"/><g transform="translate(766 5155)" fill="#1d3564" stroke="#1d3564" stroke-width="1"><circle cx="5" cy="5" r="5" stroke="none"/><circle cx="5" cy="5" r="4.5" fill="none"/></g><g transform="translate(514 5191)" fill="#1d3564" stroke="#1d3564" stroke-width="1"><circle cx="5" cy="5" r="5" stroke="none"/><circle cx="5" cy="5" r="4.5" fill="none"/></g><g transform="translate(1008 5146)" fill="#1d3564" stroke="#1d3564" stroke-width="1"><circle cx="5" cy="5" r="5" stroke="none"/><circle cx="5" cy="5" r="4.5" fill="none"/></g><g transform="translate(1296 5176)" fill="#1d3564" stroke="#1d3564" stroke-width="1"><circle cx="5" cy="5" r="5" stroke="none"/><circle cx="5" cy="5" r="4.5" fill="none"/></g><g transform="translate(1575 5200)" fill="#1d3564" stroke="#1d3564" stroke-width="1"><circle cx="5" cy="5" r="5" stroke="none"/><circle cx="5" cy="5" r="4.5" fill="none"/></g></g><text transform="translate(450 5056)" fill="#2b2b2b" font-size="26" font-family="SegoeUI, Segoe UI"><tspan x="0" y="0">16,5</tspan></text><text transform="translate(435 4968)" fill="#2b2b2b" font-size="26" font-family="SegoeUI, Segoe UI"><tspan x="0" y="0">16,9</tspan></text><text transform="translate(695 4937)" fill="#2b2b2b" font-size="26" font-family="SegoeUI, Segoe UI"><tspan x="0" y="0">19,2</tspan></text><text transform="translate(700 5031)" fill="#2b2b2b" font-size="26" font-family="SegoeUI, Segoe UI"><tspan x="0" y="0">17,9</tspan></text><text transform="translate(953 5004)" fill="#2b2b2b" font-size="26" font-family="SegoeUI, Segoe UI"><tspan x="0" y="0">19,6</tspan></text><text transform="translate(944 4917)" fill="#2b2b2b" font-size="26" font-family="SegoeUI, Segoe UI"><tspan x="0" y="0">19,8</tspan></text><text transform="translate(1230 4949)" fill="#2b2b2b" font-size="26" font-family="SegoeUI, Segoe UI"><tspan x="0" y="0">18,7</tspan></text><text transform="translate(1509 4977)" fill="#2b2b2b" font-size="26" font-family="SegoeUI, Segoe UI"><tspan x="0" y="0">16,7</tspan></text><text transform="translate(1513 5064)" fill="#2b2b2b" font-size="26" font-family="SegoeUI, Segoe UI"><tspan x="0" y="0">15,0</tspan></text><text transform="translate(1234 5033)" fill="#2b2b2b" font-size="26" font-family="SegoeUI, Segoe UI"><tspan x="0" y="0">17,6</tspan></text></g></svg>