<svg xmlns="http://www.w3.org/2000/svg" width="290.057" height="361.399" viewBox="0 0 290.057 361.399"><g transform="translate(-1289 -2181)"><g transform="translate(1289 2181)"><g transform="translate(119.949 169.621)"><path d="M3037.722-1268.409a25.107,25.107,0,0,1-25.078-25.078h9.1a16,16,0,0,0,15.98,15.98,16,16,0,0,0,15.981-15.98h9.1A25.107,25.107,0,0,1,3037.722-1268.409Z" transform="translate(-3012.644 1337.336)" fill="#1d3564"/><rect width="9.098" height="44.749" transform="translate(0)" fill="#1d3564"/><rect width="9.098" height="44.749" transform="translate(41.059)" fill="#1d3564"/><path d="M3062.8-1247.332h-9.1a16,16,0,0,0-15.981-15.98,16,16,0,0,0-15.98,15.98h-9.1a25.107,25.107,0,0,1,25.078-25.078A25.107,25.107,0,0,1,3062.8-1247.332Z" transform="translate(-3012.644 1332.239)" fill="#1d3564"/><rect width="9.098" height="44.749" transform="translate(41.059 84.008)" fill="#1d3564"/><rect width="9.098" height="44.749" transform="translate(0 84.008)" fill="#1d3564"/></g><g transform="translate(88.31 136.278)"><g transform="translate(5.343)"><path d="M3012.922-1374.091h-16.971l-17.99-17.99,3.216-3.216,16.658,16.658h15.087Z" transform="translate(-2977.961 1395.298)" fill="#006799"/><rect width="16.029" height="4.549" transform="translate(18.932 8.643)" fill="#006799"/></g><g transform="translate(0 5.343)"><path d="M2992.121-1353.29h-4.549v-15.087l-16.658-16.659,3.217-3.216,17.99,17.991Z" transform="translate(-2970.914 1388.251)" fill="#006799"/><rect width="4.549" height="16.029" transform="translate(8.644 18.933)" fill="#006799"/></g></g><g transform="translate(161.442 136.278)"><path d="M3084.341-1374.091H3067.37v-4.549h15.088l16.658-16.658,3.216,3.216Z" transform="translate(-3067.37 1395.298)" fill="#006799"/><rect width="16.029" height="4.549" transform="translate(0 8.643)" fill="#006799"/><g transform="translate(19.098 5.342)"><path d="M3097.107-1353.29h-4.549v-16.971l17.991-17.991,3.216,3.217-16.659,16.658Z" transform="translate(-3092.558 1388.252)" fill="#006799"/><rect width="4.549" height="16.029" transform="translate(8.015 18.933)" fill="#006799"/></g></g><g transform="translate(187.344)"><path d="M3168.4-1551.444c-3.366-3.366-9.432-2.851-14.087.994l13.093,13.093C3171.248-1542.013,3171.763-1548.079,3168.4-1551.444Z" transform="translate(-3148.932 1553.681)" fill="#eb656d"/><path d="M3145.919-1528.966c3.365,3.366,9.432,2.851,14.088-.994l-13.094-13.093C3143.068-1538.4,3142.552-1532.333,3145.919-1528.966Z" transform="translate(-3143.682 1548.432)" fill="#eb656d"/></g><g transform="translate(165.642 40.409)"><path d="M3068.739-1511.043c-3.366,3.366-2.851,9.432.994,14.087l13.094-13.093C3078.171-1513.894,3072.105-1514.409,3068.739-1511.043Z" transform="translate(-3066.503 1513.28)" fill="#eb656d"/><path d="M3091.218-1488.565c3.366-3.366,2.851-9.432-.995-14.087l-13.093,13.093C3081.786-1485.714,3087.851-1485.2,3091.218-1488.565Z" transform="translate(-3071.752 1508.03)" fill="#eb656d"/></g><g transform="translate(58.833)"><path d="M2930.142-1556.758c-3.366,3.366-2.851,9.432.994,14.087l13.093-13.093C2939.574-1559.609,2933.508-1560.124,2930.142-1556.758Z" transform="translate(-2927.905 1558.995)" fill="#eb656d"/><path d="M2952.62-1534.28c3.366-3.366,2.851-9.432-.994-14.088l-13.093,13.093C2943.188-1531.429,2949.254-1530.915,2952.62-1534.28Z" transform="translate(-2933.155 1553.746)" fill="#eb656d"/></g><g transform="translate(69.685 35.928)"><path d="M3023.637-1431.752h-4.549v-6a25.25,25.25,0,0,0-25.221-25.22h-17.749a29.8,29.8,0,0,1-29.77-29.77V-1505.1h4.549v12.359a25.25,25.25,0,0,0,25.221,25.221h17.749a29.8,29.8,0,0,1,29.77,29.769Z" transform="translate(-2946.348 1505.097)" fill="#c6c6c6"/><g transform="translate(20.975 22.386)"><rect width="4.549" height="45.425" transform="translate(0.001 3.217) rotate(-45.001)" fill="#eb656d"/><rect width="45.425" height="4.549" transform="translate(0 32.118) rotate(-44.993)" fill="#eb656d"/></g><path d="M3043.043-1404.082l-8.4-8.4,3.216-3.216,5.18,5.18,5.181-5.18,3.216,3.216Z" transform="translate(-2967.7 1483.478)" fill="#c6c6c6"/></g><text transform="translate(0 219.029)" fill="#1d1d1b" font-size="12" font-family="Helvetica-Bold, Helvetica" font-weight="700"><tspan x="0" y="0">Act-RIIA/B</tspan></text><g transform="translate(107.853 320.814)"><rect width="18.892" height="32.119" transform="translate(27.623 8.467)" fill="#c6c6c6"/><path d="M3033.926-1122.14l-37.236-37.237,3.217-3.216,34.02,34.02,34.021-34.02,3.217,3.217Z" transform="translate(-2996.689 1162.593)" fill="#eb656d"/></g><g transform="translate(0 242.77)"><g fill="none" stroke="#c6c6c6" stroke-width="4"><circle cx="9.727" cy="9.727" r="9.727" stroke="none"/><circle cx="9.727" cy="9.727" r="7.727" fill="none"/></g><path d="M2869.487-1222.067h-2.274v-7.926h-1.968v7.926h-2.274v-10.2h6.516Z" transform="translate(-2856.502 1248.484)" fill="#c6c6c6"/><g transform="translate(0 36.155)" fill="none" stroke="#c6c6c6" stroke-width="4"><circle cx="9.727" cy="9.727" r="9.727" stroke="none"/><circle cx="9.727" cy="9.727" r="7.727" fill="none"/></g><path d="M2869.487-1204.953h-6.516v-10.2h2.274v7.926h1.968v-7.926h2.274Z" transform="translate(-2856.502 1244.346)" fill="#c6c6c6"/><g transform="translate(22.504 0)"><g fill="none" stroke="#c6c6c6" stroke-width="4"><circle cx="9.727" cy="9.727" r="9.727" stroke="none"/><circle cx="9.727" cy="9.727" r="7.727" fill="none"/></g><path d="M2869.487-1222.067h-2.274v-7.926h-1.968v7.926h-2.274v-10.2h6.516Z" transform="translate(-2856.502 1248.484)" fill="#c6c6c6"/><g transform="translate(0 36.155)" fill="none" stroke="#c6c6c6" stroke-width="4"><circle cx="9.727" cy="9.727" r="9.727" stroke="none"/><circle cx="9.727" cy="9.727" r="7.727" fill="none"/></g><path d="M2869.487-1204.953h-6.516v-10.2h2.274v7.926h1.968v-7.926h2.274Z" transform="translate(-2856.502 1244.346)" fill="#c6c6c6"/><g transform="translate(22.504)"><g fill="none" stroke="#c6c6c6" stroke-width="4"><circle cx="9.727" cy="9.727" r="9.727" stroke="none"/><circle cx="9.727" cy="9.727" r="7.727" fill="none"/></g><path d="M2869.487-1222.067h-2.274v-7.926h-1.968v7.926h-2.274v-10.2h6.516Z" transform="translate(-2856.502 1248.484)" fill="#c6c6c6"/><g transform="translate(0 36.155)" fill="none" stroke="#c6c6c6" stroke-width="4"><circle cx="9.727" cy="9.727" r="9.727" stroke="none"/><circle cx="9.727" cy="9.727" r="7.727" fill="none"/></g><path d="M2869.487-1204.953h-6.516v-10.2h2.274v7.926h1.968v-7.926h2.274Z" transform="translate(-2856.502 1244.346)" fill="#c6c6c6"/></g><g transform="translate(45.008)"><g transform="translate(0)" fill="none" stroke="#c6c6c6" stroke-width="4"><circle cx="9.727" cy="9.727" r="9.727" stroke="none"/><circle cx="9.727" cy="9.727" r="7.727" fill="none"/></g><path d="M2869.487-1222.067h-2.274v-7.926h-1.968v7.926h-2.274v-10.2h6.516Z" transform="translate(-2856.502 1248.484)" fill="#c6c6c6"/><g transform="translate(0 36.155)" fill="none" stroke="#c6c6c6" stroke-width="4"><circle cx="9.727" cy="9.727" r="9.727" stroke="none"/><circle cx="9.727" cy="9.727" r="7.727" fill="none"/></g><path d="M2869.487-1204.953h-6.516v-10.2h2.274v7.926h1.968v-7.926h2.274Z" transform="translate(-2856.502 1244.346)" fill="#c6c6c6"/></g><g transform="translate(67.512)"><g transform="translate(0)" fill="none" stroke="#c6c6c6" stroke-width="4"><circle cx="9.727" cy="9.727" r="9.727" stroke="none"/><circle cx="9.727" cy="9.727" r="7.727" fill="none"/></g><path d="M2869.487-1222.067h-2.274v-7.926h-1.968v7.926h-2.274v-10.2h6.516Z" transform="translate(-2856.502 1248.484)" fill="#c6c6c6"/><g transform="translate(0 36.155)" fill="none" stroke="#c6c6c6" stroke-width="4"><circle cx="9.727" cy="9.727" r="9.727" stroke="none"/><circle cx="9.727" cy="9.727" r="7.727" fill="none"/></g><path d="M2869.487-1204.953h-6.516v-10.2h2.274v7.926h1.968v-7.926h2.274Z" transform="translate(-2856.502 1244.346)" fill="#c6c6c6"/></g></g></g><g transform="translate(180.587 242.77)"><g fill="none" stroke="#c6c6c6" stroke-width="4"><circle cx="9.727" cy="9.727" r="9.727" stroke="none"/><circle cx="9.727" cy="9.727" r="7.727" fill="none"/></g><path d="M2869.487-1222.067h-2.274v-7.926h-1.968v7.926h-2.274v-10.2h6.516Z" transform="translate(-2856.502 1248.484)" fill="#c6c6c6"/><g transform="translate(0 36.155)" fill="none" stroke="#c6c6c6" stroke-width="4"><circle cx="9.727" cy="9.727" r="9.727" stroke="none"/><circle cx="9.727" cy="9.727" r="7.727" fill="none"/></g><path d="M2869.487-1204.953h-6.516v-10.2h2.274v7.926h1.968v-7.926h2.274Z" transform="translate(-2856.502 1244.346)" fill="#c6c6c6"/><g transform="translate(22.504 0)"><g fill="none" stroke="#c6c6c6" stroke-width="4"><circle cx="9.727" cy="9.727" r="9.727" stroke="none"/><circle cx="9.727" cy="9.727" r="7.727" fill="none"/></g><path d="M2869.487-1222.067h-2.274v-7.926h-1.968v7.926h-2.274v-10.2h6.516Z" transform="translate(-2856.502 1248.484)" fill="#c6c6c6"/><g transform="translate(0 36.155)" fill="none" stroke="#c6c6c6" stroke-width="4"><circle cx="9.727" cy="9.727" r="9.727" stroke="none"/><circle cx="9.727" cy="9.727" r="7.727" fill="none"/></g><path d="M2869.487-1204.953h-6.516v-10.2h2.274v7.926h1.968v-7.926h2.274Z" transform="translate(-2856.502 1244.346)" fill="#c6c6c6"/><g transform="translate(22.504)"><g fill="none" stroke="#c6c6c6" stroke-width="4"><circle cx="9.727" cy="9.727" r="9.727" stroke="none"/><circle cx="9.727" cy="9.727" r="7.727" fill="none"/></g><path d="M2869.487-1222.067h-2.274v-7.926h-1.968v7.926h-2.274v-10.2h6.516Z" transform="translate(-2856.502 1248.484)" fill="#c6c6c6"/><g transform="translate(0 36.155)" fill="none" stroke="#c6c6c6" stroke-width="4"><circle cx="9.727" cy="9.727" r="9.727" stroke="none"/><circle cx="9.727" cy="9.727" r="7.727" fill="none"/></g><path d="M2869.487-1204.953h-6.516v-10.2h2.274v7.926h1.968v-7.926h2.274Z" transform="translate(-2856.502 1244.346)" fill="#c6c6c6"/></g><g transform="translate(45.008)"><g transform="translate(0)" fill="none" stroke="#c6c6c6" stroke-width="4"><circle cx="9.727" cy="9.727" r="9.727" stroke="none"/><circle cx="9.727" cy="9.727" r="7.727" fill="none"/></g><path d="M2869.487-1222.067h-2.274v-7.926h-1.968v7.926h-2.274v-10.2h6.516Z" transform="translate(-2856.502 1248.484)" fill="#c6c6c6"/><g transform="translate(0 36.155)" fill="none" stroke="#c6c6c6" stroke-width="4"><circle cx="9.727" cy="9.727" r="9.727" stroke="none"/><circle cx="9.727" cy="9.727" r="7.727" fill="none"/></g><path d="M2869.487-1204.953h-6.516v-10.2h2.274v7.926h1.968v-7.926h2.274Z" transform="translate(-2856.502 1244.346)" fill="#c6c6c6"/></g><g transform="translate(67.512)"><g transform="translate(0)" fill="none" stroke="#c6c6c6" stroke-width="4"><circle cx="9.727" cy="9.727" r="9.727" stroke="none"/><circle cx="9.727" cy="9.727" r="7.727" fill="none"/></g><path d="M2869.487-1222.067h-2.274v-7.926h-1.968v7.926h-2.274v-10.2h6.516Z" transform="translate(-2856.502 1248.484)" fill="#c6c6c6"/><g transform="translate(0 36.155)" fill="none" stroke="#c6c6c6" stroke-width="4"><circle cx="9.727" cy="9.727" r="9.727" stroke="none"/><circle cx="9.727" cy="9.727" r="7.727" fill="none"/></g><path d="M2869.487-1204.953h-6.516v-10.2h2.274v7.926h1.968v-7.926h2.274Z" transform="translate(-2856.502 1244.346)" fill="#c6c6c6"/></g></g></g></g></g></svg>