<svg xmlns="http://www.w3.org/2000/svg" xmlns:xlink="http://www.w3.org/1999/xlink" width="32.692" height="46.296" viewBox="0 0 32.692 46.296"><defs><clipPath id="a"><rect width="32.692" height="46.296" fill="#1d3564"/></clipPath></defs><g transform="translate(0)"><g transform="translate(0 0)" clip-path="url(#a)"><path d="M16.321,46.3A16.345,16.345,0,0,1,2.191,21.79l.05-.083L16.349,0l14.1,21.708a16.419,16.419,0,0,1,.05,16.4,16.227,16.227,0,0,1-9.917,7.618,16.408,16.408,0,0,1-4.263.566M5.313,23.643A12.708,12.708,0,0,0,27.356,36.3a12.748,12.748,0,0,0,0-12.694L16.349,6.664Z" transform="translate(0 -0.001)" fill="#1d3564"/><path d="M30.873,24.946H1.825a1.815,1.815,0,0,1,0-3.631H30.873a1.815,1.815,0,0,1,0,3.631" transform="translate(0.003 6.827)" fill="#1d3564"/><path d="M4.216,33.89a1.815,1.815,0,0,1-1.285-3.1l8.945-8.945a1.816,1.816,0,0,1,2.568,2.568L5.5,33.358a1.81,1.81,0,0,1-1.285.532" transform="translate(0.769 6.827)" fill="#1d3564"/><rect width="19.649" height="3.631" transform="matrix(0.707, -0.707, 0.707, 0.707, 10.857, 42.571)" fill="#1d3564"/></g></g></svg>