<svg xmlns="http://www.w3.org/2000/svg" xmlns:xlink="http://www.w3.org/1999/xlink" width="47.202" height="42.361" viewBox="0 0 47.202 42.361"><defs><clipPath id="a"><rect width="47.202" height="42.36" fill="#1d3564"/></clipPath></defs><g transform="translate(0 0)"><rect width="47.202" height="3.631" transform="translate(0 0)" fill="#1d3564"/><g transform="translate(0 0)"><g clip-path="url(#a)"><path d="M37.538,32.678H8.49a6.665,6.665,0,0,1-6.657-6.657V0H5.464V26.021A3.029,3.029,0,0,0,8.49,29.047H37.538a3.029,3.029,0,0,0,3.026-3.026V0h3.631V26.021a6.665,6.665,0,0,1-6.657,6.657" transform="translate(0.587 0)" fill="#1d3564"/><rect width="3.631" height="13.313" transform="translate(21.786 29.047)" fill="#1d3564"/><rect width="18.155" height="3.631" transform="translate(14.524 38.73)" fill="#1d3564"/><path d="M11.165,21.581,8.6,19.014l9.829-9.83,4.84,4.84,7.262-7.261L33.1,9.331l-9.829,9.83-4.84-4.842Z" transform="translate(2.754 2.167)" fill="#1d3564"/></g></g></g></svg>