<svg xmlns="http://www.w3.org/2000/svg" xmlns:xlink="http://www.w3.org/1999/xlink" width="48.163" height="48.971" viewBox="0 0 48.163 48.971"><defs><clipPath id="a"><rect width="48.163" height="48.971" fill="#1d3564"/></clipPath></defs><g transform="translate(0 0)" clip-path="url(#a)"><path d="M22.2,32.678A16.339,16.339,0,1,1,38.542,16.339,16.358,16.358,0,0,1,22.2,32.678m0-29.047A12.708,12.708,0,1,0,34.911,16.339,12.722,12.722,0,0,0,22.2,3.631" transform="translate(1.878 0)" fill="#1d3564"/><path d="M27.036,43.684,17.11,26.491a1.815,1.815,0,1,1,3.144-1.815l6.536,11.318,2.9-5.869,6.532.423L29.689,19.229a1.815,1.815,0,1,1,3.144-1.815l9.926,17.193-10.887-.7Z" transform="translate(5.403 5.287)" fill="#1d3564"/><path d="M15.723,43.684,10.887,33.9,0,34.607,9.926,17.413a1.815,1.815,0,1,1,3.144,1.815L6.537,30.547l6.532-.423,2.9,5.869,6.536-11.318a1.815,1.815,0,1,1,3.144,1.815Z" transform="translate(0 5.287)" fill="#1d3564"/></g></svg>