<?xml version="1.0" encoding="utf-8"?>
<!-- Generator: Adobe Illustrator 26.0.2, SVG Export Plug-In . SVG Version: 6.00 Build 0)  -->
<svg version="1.1" id="Слой_1" xmlns="http://www.w3.org/2000/svg" xmlns:xlink="http://www.w3.org/1999/xlink" x="0px" y="0px"
	 viewBox="0 0 425.197 72.786" style="enable-background:new 0 0 425.197 72.786;" xml:space="preserve">
<style type="text/css">
	.st0{fill:#203564;}
</style>
<g>
	<path class="st0" d="M420.811,2.838c1.405,0.658,2.485,1.591,3.245,2.798c0.76,1.21,1.141,2.632,1.141,4.271v0.3
		c0,1.619-0.381,3.038-1.141,4.253c-0.76,1.225-1.849,2.157-3.266,2.805c-1.418,0.645-3.058,0.969-4.926,0.969
		c-1.891,0-3.541-0.323-4.945-0.969c-1.405-0.648-2.492-1.58-3.265-2.805c-0.77-1.216-1.155-2.634-1.155-4.253v-0.3
		c0-1.615,0.384-3.033,1.155-4.253c0.773-1.219,1.867-2.157,3.283-2.815c1.422-0.659,3.061-0.992,4.928-0.992
		C417.753,1.845,419.406,2.179,420.811,2.838 M422.06,9.796c0-1.716-0.527-3.024-1.588-3.918c-1.058-0.894-2.591-1.345-4.608-1.345
		c-2.016,0-3.565,0.458-4.648,1.363c-1.082,0.909-1.622,2.208-1.622,3.9v0.486c0,1.692,0.541,2.993,1.622,3.897
		c1.083,0.912,2.632,1.366,4.648,1.366c1.99,0,3.522-0.454,4.59-1.366c1.071-0.904,1.606-2.205,1.606-3.897V9.796z M419.559,6.959
		c0.548,0.475,0.822,1.134,0.822,1.977v0.188c0,0.575-0.125,1.066-0.371,1.476c-0.249,0.409-0.614,0.714-1.085,0.912l1.418,2.019
		v0.259h-3.288l-1.304-1.98h-1.082v1.98h-3.097V6.252h5.746C418.266,6.252,419.012,6.489,419.559,6.959z M414.671,9.835h1.753
		c0.25,0,0.447-0.055,0.598-0.167c0.149-0.115,0.225-0.281,0.225-0.506V9.012c0-0.198-0.076-0.353-0.225-0.464
		c-0.151-0.112-0.348-0.17-0.598-0.17h-1.753V9.835z"/>
	<g>
		<path class="st0" d="M0,1.845h16.862l18.415,48.748h0.777L54.466,1.845h16.96v69.387H58.44V37.02l0.773-11.53H58.44L40.802,71.233
			H30.624L12.891,25.49h-0.777l0.777,11.53v34.213H0V1.845z"/>
		<path class="st0" d="M86.833,13.959c-1.617-1.617-2.421-3.557-2.421-5.812c0-2.263,0.804-4.188,2.421-5.773
			C88.445,0.797,90.386,0,92.645,0c2.263,0,4.184,0.797,5.769,2.374c1.581,1.585,2.374,3.51,2.374,5.773
			c0,2.256-0.793,4.196-2.374,5.812c-1.585,1.617-3.506,2.421-5.769,2.421C90.386,16.381,88.445,15.576,86.833,13.959z
			 M86.249,21.807h12.698v49.426H86.249V21.807z"/>
		<path class="st0" d="M121.719,69.34c-4.006-2.287-7.122-5.426-9.35-9.401c-2.232-3.967-3.344-8.447-3.344-13.415
			c0-4.913,1.112-9.369,3.344-13.376c2.228-4.006,5.343-7.153,9.35-9.448s8.561-3.439,13.664-3.439c5.04,0,9.563,1.144,13.569,3.439
			c4.006,2.295,7.122,5.442,9.354,9.448c2.228,4.006,3.344,8.462,3.344,13.376c0,4.969-1.116,9.448-3.344,13.415
			c-2.232,3.975-5.347,7.114-9.354,9.401c-4.006,2.295-8.529,3.446-13.569,3.446C130.28,72.786,125.726,71.635,121.719,69.34z
			 M142.17,59.316c2.066-1.167,3.715-2.847,4.941-5.04c1.226-2.2,1.842-4.787,1.842-7.753c0-2.91-0.615-5.465-1.842-7.658
			c-1.226-2.2-2.875-3.88-4.941-5.04c-2.07-1.167-4.33-1.743-6.786-1.743c-2.453,0-4.716,0.576-6.783,1.743
			c-2.066,1.159-3.73,2.839-4.992,5.04c-1.258,2.193-1.889,4.748-1.889,7.658c0,2.902,0.631,5.473,1.889,7.697
			c1.262,2.232,2.926,3.928,4.992,5.095c2.066,1.159,4.33,1.743,6.783,1.743C137.84,61.059,140.099,60.475,142.17,59.316z"/>
		<path class="st0" d="M175.073,69.103c-3.715-2.461-6.317-5.655-7.8-9.598l11.337-4.945c1.033,2.327,2.504,4.093,4.409,5.284
			c1.905,1.199,4.121,1.79,6.641,1.79c2.323,0,4.263-0.371,5.812-1.112c1.55-0.741,2.327-1.956,2.327-3.636
			c0-1.609-0.71-2.823-2.133-3.628c-1.42-0.812-3.553-1.538-6.396-2.185l-5.812-1.262c-4.006-0.97-7.335-2.729-9.985-5.276
			c-2.65-2.555-3.971-5.734-3.971-9.551c0-2.839,0.856-5.395,2.567-7.65c1.711-2.263,4.038-4.006,6.98-5.237
			c2.938-1.23,6.183-1.838,9.736-1.838c10.209,0,17.023,3.581,20.45,10.75l-10.856,4.756c-1.936-3.494-5.04-5.237-9.302-5.237
			c-2.196,0-3.939,0.402-5.233,1.215c-1.293,0.804-1.936,1.822-1.936,3.052c0,2.327,2.193,4.07,6.589,5.229l7.268,1.743
			c4.909,1.23,8.608,3.107,11.097,5.623c2.484,2.524,3.73,5.623,3.73,9.306c0,3.163-0.919,5.962-2.76,8.384
			c-1.842,2.421-4.361,4.314-7.559,5.671c-3.198,1.357-6.735,2.035-10.612,2.035C183.65,72.786,178.788,71.556,175.073,69.103z"/>
		<path class="st0" d="M234.042,70.894c-2.066-0.741-3.746-1.759-5.04-3.052c-3.036-2.91-4.555-7.043-4.555-12.406V32.659h-8.624
			V21.807h8.624V7.855h12.698v13.952h12.114v10.852h-12.114v20.45c0,2.524,0.548,4.33,1.648,5.426
			c0.903,1.033,2.453,1.554,4.649,1.554c1.226,0,2.244-0.158,3.052-0.489c0.808-0.315,1.857-0.868,3.151-1.64v12.398
			c-2.776,1.104-5.718,1.648-8.817,1.648C238.372,72.006,236.112,71.635,234.042,70.894z"/>
		<path class="st0" d="M261.081,68.181c-3.36-3.068-5.04-7.09-5.04-12.067c0-3.297,0.871-6.199,2.618-8.723
			c1.743-2.516,4.133-4.456,7.169-5.812s6.396-2.035,10.079-2.035c5.103,0,9.464,0.741,13.084,2.224v-2.129
			c0-2.713-1.017-4.906-3.052-6.585s-4.768-2.524-8.19-2.524c-2.327,0-4.57,0.536-6.735,1.601c-2.165,1.065-3.959,2.469-5.379,4.211
			l-8.139-6.396c2.39-3.099,5.395-5.489,9.011-7.169c3.62-1.68,7.559-2.516,11.826-2.516c7.559,0,13.309,1.743,17.248,5.229
			c3.939,3.486,5.911,8.597,5.911,15.316v30.427h-12.5v-5.04h-0.777c-1.487,1.94-3.439,3.525-5.86,4.748
			c-2.425,1.23-5.221,1.845-8.384,1.845C268.739,72.786,264.441,71.248,261.081,68.181z M285.747,59.363
			c2.161-2.358,3.245-5.118,3.245-8.289c-3.297-1.554-6.751-2.327-10.371-2.327c-6.589,0-9.882,2.461-9.882,7.366
			c0,2.003,0.71,3.636,2.129,4.898c1.42,1.254,3.458,1.885,6.108,1.885C280.656,62.896,283.582,61.721,285.747,59.363z"/>
		<path class="st0" d="M337.638,1.845h13.084v27.714h29.169V1.845h13.084v69.387h-13.084V41.965h-29.169v29.268h-13.084V1.845z"/>
	</g>
</g>
</svg>
