<svg xmlns="http://www.w3.org/2000/svg" xmlns:xlink="http://www.w3.org/1999/xlink" width="189.868" height="42.64" viewBox="0 0 189.868 42.64"><defs><clipPath id="a"><rect width="189.868" height="42.64" fill="#1d3564"/></clipPath></defs><g transform="translate(-333 -1622.06)"><g transform="translate(-566.5 703.06)"><g transform="translate(899.5 919)"><g transform="translate(0 0)" clip-path="url(#a)"><path d="M513.542,2.807a4.368,4.368,0,0,1,1.9,1.636,4.6,4.6,0,0,1,.667,2.5v.175A4.606,4.606,0,0,1,515.44,9.6a4.272,4.272,0,0,1-1.91,1.64,7.643,7.643,0,0,1-5.773,0,4.358,4.358,0,0,1-1.91-1.64,4.556,4.556,0,0,1-.676-2.488V6.941a4.564,4.564,0,0,1,.676-2.488,4.421,4.421,0,0,1,1.921-1.647,7.475,7.475,0,0,1,5.775,0m.73,4.069a2.827,2.827,0,0,0-.929-2.291,4.065,4.065,0,0,0-2.695-.787,4.128,4.128,0,0,0-2.718.8,2.813,2.813,0,0,0-.949,2.281V7.16a2.806,2.806,0,0,0,.949,2.279,4.107,4.107,0,0,0,2.718.8,4.021,4.021,0,0,0,2.684-.8,2.815,2.815,0,0,0,.939-2.279ZM512.81,5.218a1.447,1.447,0,0,1,.48,1.155v.11a1.651,1.651,0,0,1-.216.864,1.325,1.325,0,0,1-.635.533l.83,1.18v.152h-1.923l-.762-1.158h-.633V9.213H508.14V4.8h3.36a1.94,1.94,0,0,1,1.31.414M509.951,6.9h1.026a.568.568,0,0,0,.349-.1.35.35,0,0,0,.132-.3V6.419a.321.321,0,0,0-.132-.272.571.571,0,0,0-.349-.1h-1.026Z" transform="translate(-326.238 -1.438)" fill="#1d3564"/><path d="M162.27,36.85a6.635,6.635,0,0,0,5.139-2.072,6.952,6.952,0,0,0,1.9-4.855,14.1,14.1,0,0,0-6.075-1.362q-5.791,0-5.792,4.315a3.654,3.654,0,0,0,1.249,2.867,5.223,5.223,0,0,0,3.577,1.107m-1.76,5.791a10.761,10.761,0,0,1-7.551-2.7,9.12,9.12,0,0,1-2.953-7.068,8.755,8.755,0,0,1,1.533-5.11,9.875,9.875,0,0,1,4.2-3.407,14.307,14.307,0,0,1,5.9-1.192,20.158,20.158,0,0,1,7.665,1.306V23.223a4.767,4.767,0,0,0-1.788-3.861,7.3,7.3,0,0,0-4.8-1.476,8.831,8.831,0,0,0-3.947.937,9.3,9.3,0,0,0-3.151,2.47l-4.769-3.747a14.011,14.011,0,0,1,5.28-4.2,16.248,16.248,0,0,1,6.927-1.476q6.643,0,10.107,3.066t3.463,8.971V41.732H169.31V38.78h-.454a9.865,9.865,0,0,1-3.436,2.782,10.722,10.722,0,0,1-4.911,1.078m-19.417-.454a11.666,11.666,0,0,1-3.975-.653,7.849,7.849,0,0,1-2.952-1.788Q131.5,37.19,131.5,32.478V19.135h-5.053V12.776H131.5V4.6h7.438v8.176h7.1v6.359h-7.1V31.116a4.376,4.376,0,0,0,.965,3.179,3.473,3.473,0,0,0,2.726.909,4.852,4.852,0,0,0,1.788-.284,13.752,13.752,0,0,0,1.845-.966v7.268a13.929,13.929,0,0,1-5.166.965m-29.979.454a15.252,15.252,0,0,1-8.545-2.157A11.487,11.487,0,0,1,98,34.863l6.643-2.9a6.779,6.779,0,0,0,2.583,3.095,7.165,7.165,0,0,0,3.889,1.05,7.871,7.871,0,0,0,3.406-.653,2.206,2.206,0,0,0,1.363-2.129,2.3,2.3,0,0,0-1.249-2.129,14.357,14.357,0,0,0-3.747-1.278l-3.407-.738a12.464,12.464,0,0,1-5.848-3.094A7.449,7.449,0,0,1,99.3,20.5a7.237,7.237,0,0,1,1.5-4.485,9.659,9.659,0,0,1,4.088-3.066,14.656,14.656,0,0,1,5.706-1.079q8.971,0,11.98,6.3l-6.359,2.782a6.553,6.553,0,0,0-8.517-2.356,2.077,2.077,0,0,0-1.136,1.788q0,2.044,3.861,3.066l4.259,1.022a13.571,13.571,0,0,1,6.5,3.293,7.458,7.458,0,0,1,2.186,5.45,7.9,7.9,0,0,1-1.618,4.912,10.635,10.635,0,0,1-4.429,3.321,15.763,15.763,0,0,1-6.217,1.192m-31.8-6.87a7.962,7.962,0,0,0,3.974-1.022,7.493,7.493,0,0,0,2.9-2.952,9.165,9.165,0,0,0,1.079-4.542,9.043,9.043,0,0,0-1.079-4.486,7.494,7.494,0,0,0-2.9-2.952,8.24,8.24,0,0,0-7.949,0,7.69,7.69,0,0,0-2.924,2.952,8.856,8.856,0,0,0-1.107,4.486,9.012,9.012,0,0,0,1.107,4.514,7.638,7.638,0,0,0,2.924,2.981,7.962,7.962,0,0,0,3.975,1.022m0,6.87a15.822,15.822,0,0,1-8.006-2.015,14.32,14.32,0,0,1-5.479-5.508,15.791,15.791,0,0,1-1.959-7.863,15.839,15.839,0,0,1,1.959-7.836,14.262,14.262,0,0,1,5.479-5.536,16.8,16.8,0,0,1,15.955,0,14.268,14.268,0,0,1,5.479,5.536A15.842,15.842,0,0,1,94.7,27.254a15.8,15.8,0,0,1-1.958,7.863,14.326,14.326,0,0,1-5.479,5.508,15.708,15.708,0,0,1-7.949,2.015M50.532,12.776H57.97V41.733H50.532ZM54.279,9.6a4.644,4.644,0,0,1-3.406-1.42,4.643,4.643,0,0,1-1.42-3.406,4.553,4.553,0,0,1,1.42-3.379A4.7,4.7,0,0,1,54.279,0a4.6,4.6,0,0,1,3.379,1.391,4.6,4.6,0,0,1,1.391,3.379,4.694,4.694,0,0,1-1.391,3.406A4.554,4.554,0,0,1,54.279,9.6M0,1.08H9.879L20.667,29.639h.454L31.909,1.08h9.936V41.732H34.237V21.69l.454-6.756h-.454L23.9,41.732H17.942L7.551,14.934H7.1l.454,6.756V41.732H0Z" transform="translate(0 -0.001)" fill="#1d3564"/></g></g></g></g></svg>