<svg xmlns="http://www.w3.org/2000/svg" width="1131.3" height="483" viewBox="0 0 1131.3 483"><g transform="translate(-389 -3864)"><text transform="translate(443 3890)" fill="#2b2b2b" font-size="26" font-family="PTSans-Regular, PT Sans, Helvetica"><tspan x="0" y="0">Control Group</tspan></text><text transform="translate(731 3890)" fill="#2b2b2b" font-size="26" font-family="PTSans-Regular, PT Sans, Helvetica"><tspan x="0" y="0">Injected with Miosta</tspan></text><text transform="translate(389 3954)" fill="#2b2b2b" font-size="20" font-family="PTSans-Regular, PT Sans, Helvetica"><tspan x="0" y="0">800</tspan></text><text transform="translate(389 4041)" fill="#2b2b2b" font-size="20" font-family="PTSans-Regular, PT Sans, Helvetica"><tspan x="0" y="0">600</tspan></text><text transform="translate(389 4127)" fill="#2b2b2b" font-size="20" font-family="PTSans-Regular, PT Sans, Helvetica"><tspan x="0" y="0">400</tspan></text><text transform="translate(389 4214)" fill="#2b2b2b" font-size="20" font-family="PTSans-Regular, PT Sans, Helvetica"><tspan x="0" y="0">200</tspan></text><text transform="translate(389 4300)" fill="#2b2b2b" font-size="20" font-family="PTSans-Regular, PT Sans, Helvetica"><tspan x="0" y="0">0</tspan></text><path d="M-473,8610H589.7" transform="translate(930.6 -4665.5)" fill="none" stroke="#e3e3e3" stroke-width="1"/><path d="M-473,8610H589.7" transform="translate(930.6 -4578.5)" fill="none" stroke="#e3e3e3" stroke-width="1"/><path d="M-473,8610H589.7" transform="translate(930.6 -4490.5)" fill="none" stroke="#e3e3e3" stroke-width="1"/><path d="M-473,8610H589.7" transform="translate(930.6 -4403.5)" fill="none" stroke="#e3e3e3" stroke-width="1"/><path d="M-473,8610H589.7" transform="translate(930.6 -4315.5)" fill="none" stroke="#e3e3e3" stroke-width="1"/><text transform="translate(498 4341)" fill="#2b2b2b" font-size="20" font-family="PTSans-Regular, PT Sans, Helvetica"><tspan x="0" y="0">Before injection</tspan></text><text transform="translate(802 4341)" fill="#2b2b2b" font-size="20" font-family="PTSans-Regular, PT Sans, Helvetica"><tspan x="0" y="0">2 mo. after</tspan></text><text transform="translate(1085 4341)" fill="#2b2b2b" font-size="20" font-family="PTSans-Regular, PT Sans, Helvetica"><tspan x="0" y="0">4 mo. after</tspan></text><text transform="translate(1375 4341)" fill="#2b2b2b" font-size="20" font-family="PTSans-Regular, PT Sans, Helvetica"><tspan x="0" y="0">6 mo. after</tspan></text><rect width="33" height="33" transform="translate(389 3864)" fill="#ddd"/><rect width="33" height="33" transform="translate(677 3864)" fill="#1d3564"/></g></svg>
