<svg xmlns="http://www.w3.org/2000/svg" width="1131.3" height="483" viewBox="0 0 1131.3 483"><g transform="translate(-389 -3864)"><text transform="translate(443 3890)" fill="#2b2b2b" font-size="26" font-family="PTSans-Regular, PT Sans"><tspan x="0" y="0">Control Group</tspan></text><text transform="translate(731 3890)" fill="#2b2b2b" font-size="26" font-family="PTSans-Regular, PT Sans"><tspan x="0" y="0">Injected with Miosta H</tspan></text><text transform="translate(389 3954)" fill="#2b2b2b" font-size="20" font-family="PTSans-Regular, PT Sans"><tspan x="0" y="0">800</tspan></text><text transform="translate(389 4041)" fill="#2b2b2b" font-size="20" font-family="PTSans-Regular, PT Sans"><tspan x="0" y="0">600</tspan></text><text transform="translate(389 4127)" fill="#2b2b2b" font-size="20" font-family="PTSans-Regular, PT Sans"><tspan x="0" y="0">400</tspan></text><text transform="translate(389 4214)" fill="#2b2b2b" font-size="20" font-family="PTSans-Regular, PT Sans"><tspan x="0" y="0">200</tspan></text><text transform="translate(389 4300)" fill="#2b2b2b" font-size="20" font-family="PTSans-Regular, PT Sans"><tspan x="0" y="0">0</tspan></text><path d="M-473,8610H589.7" transform="translate(930.6 -4665.5)" fill="none" stroke="#e3e3e3" stroke-width="1"/><path d="M-473,8610H589.7" transform="translate(930.6 -4578.5)" fill="none" stroke="#e3e3e3" stroke-width="1"/><path d="M-473,8610H589.7" transform="translate(930.6 -4490.5)" fill="none" stroke="#e3e3e3" stroke-width="1"/><path d="M-473,8610H589.7" transform="translate(930.6 -4403.5)" fill="none" stroke="#e3e3e3" stroke-width="1"/><path d="M-473,8610H589.7" transform="translate(930.6 -4315.5)" fill="none" stroke="#e3e3e3" stroke-width="1"/><text transform="translate(498 4341)" fill="#2b2b2b" font-size="20" font-family="PTSans-Regular, PT Sans"><tspan x="0" y="0">Before injection</tspan></text><text transform="translate(802 4341)" fill="#2b2b2b" font-size="20" font-family="PTSans-Regular, PT Sans"><tspan x="0" y="0">2 mo. after</tspan></text><text transform="translate(1085 4341)" fill="#2b2b2b" font-size="20" font-family="PTSans-Regular, PT Sans"><tspan x="0" y="0">4 mo. after</tspan></text><text transform="translate(1375 4341)" fill="#2b2b2b" font-size="20" font-family="PTSans-Regular, PT Sans"><tspan x="0" y="0">6 mo. after</tspan></text><rect width="33" height="33" transform="translate(389 3864)" fill="#ddd"/><rect width="33" height="33" transform="translate(677 3864)" fill="#1d3564"/><text transform="translate(885 4125)" fill="#2b2b2b" font-size="26" font-family="PTSans-Regular, PT Sans"><tspan x="0" y="0">0,322</tspan></text><text transform="translate(1103 4096)" fill="#2b2b2b" font-size="26" font-family="PTSans-Regular, PT Sans"><tspan x="0" y="0">0,497</tspan></text><text transform="translate(835 3997)" fill="#2b2b2b" font-size="26" font-family="PTSans-Bold, PT Sans" font-weight="700"><tspan x="0" y="0">0,490</tspan></text><text transform="translate(1103 4001)" fill="#2b2b2b" font-size="26" font-family="PTSans-Bold, PT Sans" font-weight="700"><tspan x="0" y="0">0,672</tspan></text><text transform="translate(1384 3973)" fill="#2b2b2b" font-size="26" font-family="PTSans-Bold, PT Sans" font-weight="700"><tspan x="0" y="0">0,792</tspan></text><text transform="translate(1384 4137)" fill="#2b2b2b" font-size="26" font-family="PTSans-Bold, PT Sans" font-weight="700"><tspan x="0" y="0">0,550</tspan></text><g transform="translate(0 -1428)"><path d="M-248,9966.3l264.7-156,270-29.3,264.6,48" transform="translate(862 -4304)" fill="none" stroke="#ddd" stroke-width="5"/><path d="M-258,9969.733,17.333,9755.467H282.267l266.667-33.733" transform="translate(862 -4302.733)" fill="none" stroke="#1d3564" stroke-width="5"/></g></g></svg>
