<svg xmlns="http://www.w3.org/2000/svg" width="1329" height="484" viewBox="0 0 1329 484"><g transform="translate(-300 -4173)"><text transform="translate(354 4201)" fill="#2b2b2b" font-size="26" font-family="PTSans-Regular, PT Sans"><tspan x="0" y="0">Control group</tspan></text><text transform="translate(660 4201)" fill="#2b2b2b" font-size="26" font-family="PTSans-Regular, PT Sans"><tspan x="0" y="0">Injected with Miosta H</tspan></text><text transform="translate(1036 4202)" fill="#2b2b2b" font-size="26" font-family="PTSans-Regular, PT Sans"><tspan x="0" y="0">Injected with Duphalyte</tspan></text><text transform="translate(300 4265)" fill="#2b2b2b" font-size="20" font-family="PTSans-Regular, PT Sans"><tspan x="0" y="0">800</tspan></text><text transform="translate(300 4352)" fill="#2b2b2b" font-size="20" font-family="PTSans-Regular, PT Sans"><tspan x="0" y="0">600</tspan></text><text transform="translate(300 4438)" fill="#2b2b2b" font-size="20" font-family="PTSans-Regular, PT Sans"><tspan x="0" y="0">400</tspan></text><text transform="translate(300 4525)" fill="#2b2b2b" font-size="20" font-family="PTSans-Regular, PT Sans"><tspan x="0" y="0">200</tspan></text><text transform="translate(300 4611)" fill="#2b2b2b" font-size="20" font-family="PTSans-Regular, PT Sans"><tspan x="0" y="0">0</tspan></text><path d="M-473,8610H787.4" transform="translate(841.6 -4354.5)" fill="none" stroke="#e3e3e3" stroke-width="1"/><path d="M-473,8610H787.4" transform="translate(841.6 -4267.5)" fill="none" stroke="#e3e3e3" stroke-width="1"/><path d="M-473,8610H787.4" transform="translate(841.6 -4179.5)" fill="none" stroke="#e3e3e3" stroke-width="1"/><path d="M-473,8610H787.4" transform="translate(841.6 -4092.5)" fill="none" stroke="#e3e3e3" stroke-width="1"/><path d="M-473,8610H787.4" transform="translate(841.6 -4004.5)" fill="none" stroke="#e3e3e3" stroke-width="1"/><text transform="translate(458 4652)" fill="#2b2b2b" font-size="20" font-family="PTSans-Regular, PT Sans"><tspan x="0" y="0">Before injection</tspan></text><text transform="translate(774 4652)" fill="#2b2b2b" font-size="20" font-family="PTSans-Regular, PT Sans"><tspan x="0" y="0">2 mo. after</tspan></text><text transform="translate(1074 4652)" fill="#2b2b2b" font-size="20" font-family="PTSans-Regular, PT Sans"><tspan x="0" y="0">4 mo. after</tspan></text><text transform="translate(1479 4652)" fill="#2b2b2b" font-size="20" font-family="PTSans-Regular, PT Sans"><tspan x="0" y="0">6 mo. after</tspan></text><rect width="33" height="33" transform="translate(300 4175)" fill="#ddd"/><rect width="33" height="33" transform="translate(606 4175)" fill="#1d3564"/><rect width="33" height="33" transform="translate(982 4176)" fill="#949292"/><text transform="translate(799 4498)" fill="#2b2b2b" font-size="26" font-family="PTSans-Regular, PT Sans"><tspan x="0" y="0">0,322</tspan></text><text transform="translate(807 4424)" fill="#2b2b2b" font-size="26" font-family="PTSans-Regular, PT Sans"><tspan x="0" y="0">0,380</tspan></text><text transform="translate(1094 4351)" fill="#2b2b2b" font-size="26" font-family="PTSans-Regular, PT Sans"><tspan x="0" y="0">0,510</tspan></text><text transform="translate(1504 4310)" fill="#2b2b2b" font-size="26" font-family="PTSans-Regular, PT Sans"><tspan x="0" y="0">0,610</tspan></text><text transform="translate(1100 4421)" fill="#2b2b2b" font-size="26" font-family="PTSans-Regular, PT Sans"><tspan x="0" y="0">0,497</tspan></text><text transform="translate(794 4364)" fill="#2b2b2b" font-size="26" font-family="PTSans-Regular, PT Sans" font-weight="700"><tspan x="0" y="0">0,490</tspan></text><text transform="translate(1097 4284)" fill="#2b2b2b" font-size="26" font-family="PTSans-Regular, PT Sans" font-weight="700"><tspan x="0" y="0">0,672</tspan></text><text transform="translate(1499 4245)" fill="#2b2b2b" font-size="26" font-family="PTSans-Regular, PT Sans" font-weight="700"><tspan x="0" y="0">0,792</tspan></text><text transform="translate(1505 4404)" fill="#2b2b2b" font-size="26" font-family="PTSans-Regular, PT Sans" font-weight="700"><tspan x="0" y="0">0,550</tspan></text><g transform="translate(-89 -1150)"><path d="M-248,9966.3l307.525-47.971,301.081-82.178,404.716-21.115" transform="translate(862 -4304)" fill="none" stroke="#ddd" stroke-width="5"/><path d="M-253.738,9969.4l23.649-12.565s145.108-66.073,292.832-116.992,298.064-86.685,298.064-86.685l404.218-38.937" transform="translate(862 -4302.733)" fill="none" stroke="#1d3564" stroke-width="5"/></g><path d="M-258,9958.782,56.369,9880.37l299.451-69.12,403.693-37.227" transform="translate(777 -5441.782)" fill="none" stroke="#949292" stroke-width="5"/><g transform="translate(1532 4256)" fill="#1d3564" stroke="#1d3564" stroke-width="1"><circle cx="5" cy="5" r="5" stroke="none"/><circle cx="5" cy="5" r="4.5" fill="none"/></g><g transform="translate(828 4434)" fill="#949292" stroke="#949292" stroke-width="1"><circle cx="5" cy="5" r="5" stroke="none"/><circle cx="5" cy="5" r="4.5" fill="none"/></g><g transform="translate(828 4460)" fill="#ddd" stroke="#ddd" stroke-width="1"><circle cx="5" cy="5" r="5" stroke="none"/><circle cx="5" cy="5" r="4.5" fill="none"/></g><g transform="translate(1128 4377)" fill="#ddd" stroke="#ddd" stroke-width="1"><circle cx="5" cy="5" r="5" stroke="none"/><circle cx="5" cy="5" r="4.5" fill="none"/></g><g transform="translate(1532 4356)" fill="#ddd" stroke="#ddd" stroke-width="1"><circle cx="5" cy="5" r="5" stroke="none"/><circle cx="5" cy="5" r="4.5" fill="none"/></g><g transform="translate(514 4511)" fill="#949292" stroke="#949292" stroke-width="1"><circle cx="5" cy="5" r="5" stroke="none"/><circle cx="5" cy="5" r="4.5" fill="none"/></g><g transform="translate(1128 4364)" fill="#949292" stroke="#949292" stroke-width="1"><circle cx="5" cy="5" r="5" stroke="none"/><circle cx="5" cy="5" r="4.5" fill="none"/></g><g transform="translate(1532 4327)" fill="#949292" stroke="#949292" stroke-width="1"><circle cx="5" cy="5" r="5" stroke="none"/><circle cx="5" cy="5" r="4.5" fill="none"/></g><g transform="translate(828 4383)" fill="#1d3564" stroke="#1d3564" stroke-width="1"><circle cx="5" cy="5" r="5" stroke="none"/><circle cx="5" cy="5" r="4.5" fill="none"/></g><g transform="translate(1128 4296)" fill="#1d3564" stroke="#1d3564" stroke-width="1"><circle cx="5" cy="5" r="5" stroke="none"/><circle cx="5" cy="5" r="4.5" fill="none"/></g></g></svg>
